<?xml version="1.0" encoding="UTF-8" standalone="no"?>
<!DOCTYPE svg PUBLIC "-//W3C//DTD SVG 1.1//EN"
 "http://www.w3.org/Graphics/SVG/1.1/DTD/svg11.dtd">
<!-- Generated by graphviz version 2.40.1 (20161225.0304)
 -->
<!-- Title: %3 Pages: 1 -->
<svg width="1487pt" height="836pt"
 viewBox="0.00 0.00 1487.09 836.00" xmlns="http://www.w3.org/2000/svg" xmlns:xlink="http://www.w3.org/1999/xlink">
<g id="graph0" class="graph" transform="scale(1 1) rotate(0) translate(4 832)">
<title>%3</title>
<polygon fill="#ffffff" stroke="transparent" points="-4,4 -4,-832 1483.0934,-832 1483.0934,4 -4,4"/>
<!-- 1 -->
<g id="node1" class="node">
<title>1</title>
<ellipse fill="none" stroke="#000000" cx="360.0467" cy="-810" rx="32.4942" ry="18"/>
<text text-anchor="middle" x="360.0467" y="-806.3" font-family="Times,serif" font-size="14.00" fill="#000000">chunk</text>
</g>
<!-- 2 -->
<g id="node2" class="node">
<title>2</title>
<ellipse fill="none" stroke="#000000" cx="159.0467" cy="-738" rx="52.7911" ry="18"/>
<text text-anchor="middle" x="159.0467" y="-734.3" font-family="Times,serif" font-size="14.00" fill="#000000">functioncall</text>
</g>
<!-- 1&#45;&gt;2 -->
<g id="edge1" class="edge">
<title>1&#45;&gt;2</title>
<path fill="none" stroke="#000000" d="M332.52,-800.1397C299.7121,-788.3876 244.3939,-768.5721 205.0496,-754.4787"/>
<polygon fill="#000000" stroke="#000000" points="206.009,-751.1046 195.4145,-751.0273 203.6484,-757.6946 206.009,-751.1046"/>
</g>
<!-- 6 -->
<g id="node8" class="node">
<title>6</title>
<ellipse fill="none" stroke="#000000" cx="360.0467" cy="-738" rx="27" ry="18"/>
<text text-anchor="middle" x="360.0467" y="-734.3" font-family="Times,serif" font-size="14.00" fill="#000000">stat</text>
</g>
<!-- 1&#45;&gt;6 -->
<g id="edge7" class="edge">
<title>1&#45;&gt;6</title>
<path fill="none" stroke="#000000" d="M360.0467,-791.8314C360.0467,-784.131 360.0467,-774.9743 360.0467,-766.4166"/>
<polygon fill="#000000" stroke="#000000" points="363.5468,-766.4132 360.0467,-756.4133 356.5468,-766.4133 363.5468,-766.4132"/>
</g>
<!-- 18 -->
<g id="node25" class="node">
<title>18</title>
<ellipse fill="none" stroke="#000000" cx="697.0467" cy="-738" rx="42.4939" ry="18"/>
<text text-anchor="middle" x="697.0467" y="-734.3" font-family="Times,serif" font-size="14.00" fill="#000000">stat:FOR</text>
</g>
<!-- 1&#45;&gt;18 -->
<g id="edge24" class="edge">
<title>1&#45;&gt;18</title>
<path fill="none" stroke="#000000" d="M390.5476,-803.4835C449.3846,-790.913 578.9441,-763.2326 649.3072,-748.1996"/>
<polygon fill="#000000" stroke="#000000" points="650.1956,-751.5888 659.2436,-746.0766 648.733,-744.7433 650.1956,-751.5888"/>
</g>
<!-- 3 -->
<g id="node3" class="node">
<title>3</title>
<ellipse fill="none" stroke="#000000" cx="54.0467" cy="-666" rx="27" ry="18"/>
<text text-anchor="middle" x="54.0467" y="-662.3" font-family="Times,serif" font-size="14.00" fill="#000000">var</text>
</g>
<!-- 2&#45;&gt;3 -->
<g id="edge2" class="edge">
<title>2&#45;&gt;3</title>
<path fill="none" stroke="#000000" d="M135.4827,-721.8418C119.4182,-710.8261 98.0971,-696.206 81.3008,-684.6885"/>
<polygon fill="#000000" stroke="#000000" points="83.2083,-681.7527 72.9816,-678.9839 79.2496,-687.5258 83.2083,-681.7527"/>
</g>
<!-- 5 -->
<g id="node6" class="node">
<title>5</title>
<ellipse fill="none" stroke="#000000" cx="159.0467" cy="-666" rx="42.4939" ry="18"/>
<text text-anchor="middle" x="159.0467" y="-662.3" font-family="Times,serif" font-size="14.00" fill="#000000">STRING</text>
</g>
<!-- 2&#45;&gt;5 -->
<g id="edge5" class="edge">
<title>2&#45;&gt;5</title>
<path fill="none" stroke="#000000" d="M159.0467,-719.8314C159.0467,-712.131 159.0467,-702.9743 159.0467,-694.4166"/>
<polygon fill="#000000" stroke="#000000" points="162.5468,-694.4132 159.0467,-684.4133 155.5468,-694.4133 162.5468,-694.4132"/>
</g>
<!-- 4 -->
<g id="node4" class="node">
<title>4</title>
<ellipse fill="none" stroke="#000000" cx="37.0467" cy="-594" rx="37.0935" ry="18"/>
<text text-anchor="middle" x="37.0467" y="-590.3" font-family="Times,serif" font-size="14.00" fill="#000000">NAME</text>
</g>
<!-- 3&#45;&gt;4 -->
<g id="edge3" class="edge">
<title>3&#45;&gt;4</title>
<path fill="none" stroke="#000000" d="M49.8445,-648.2022C47.9788,-640.3005 45.7382,-630.811 43.6569,-621.9959"/>
<polygon fill="#000000" stroke="#000000" points="47.023,-621.0212 41.3187,-612.0931 40.2104,-622.6298 47.023,-621.0212"/>
</g>
<!-- NAME4 -->
<g id="node5" class="node">
<title>NAME4</title>
<ellipse fill="none" stroke="#000000" cx="37.0467" cy="-522" rx="27.0966" ry="18"/>
<text text-anchor="middle" x="37.0467" y="-518.3" font-family="Times,serif" font-size="14.00" fill="#000000">print</text>
</g>
<!-- 4&#45;&gt;NAME4 -->
<g id="edge4" class="edge">
<title>4&#45;&gt;NAME4</title>
<path fill="none" stroke="#000000" d="M37.0467,-575.8314C37.0467,-568.131 37.0467,-558.9743 37.0467,-550.4166"/>
<polygon fill="#000000" stroke="#000000" points="40.5468,-550.4132 37.0467,-540.4133 33.5468,-550.4133 40.5468,-550.4132"/>
</g>
<!-- STRING5 -->
<g id="node7" class="node">
<title>STRING5</title>
<ellipse fill="none" stroke="#000000" cx="159.0467" cy="-594" rx="66.8882" ry="18"/>
<text text-anchor="middle" x="159.0467" y="-590.3" font-family="Times,serif" font-size="14.00" fill="#000000">enter a number:</text>
</g>
<!-- 5&#45;&gt;STRING5 -->
<g id="edge6" class="edge">
<title>5&#45;&gt;STRING5</title>
<path fill="none" stroke="#000000" d="M159.0467,-647.8314C159.0467,-640.131 159.0467,-630.9743 159.0467,-622.4166"/>
<polygon fill="#000000" stroke="#000000" points="162.5468,-622.4132 159.0467,-612.4133 155.5468,-622.4133 162.5468,-622.4132"/>
</g>
<!-- 7 -->
<g id="node9" class="node">
<title>7</title>
<ellipse fill="none" stroke="#000000" cx="267.0467" cy="-666" rx="32.4942" ry="18"/>
<text text-anchor="middle" x="267.0467" y="-662.3" font-family="Times,serif" font-size="14.00" fill="#000000">varlist</text>
</g>
<!-- 6&#45;&gt;7 -->
<g id="edge8" class="edge">
<title>6&#45;&gt;7</title>
<path fill="none" stroke="#000000" d="M342.1154,-724.1177C328.5766,-713.6361 309.7625,-699.0703 294.3566,-687.1432"/>
<polygon fill="#000000" stroke="#000000" points="296.2535,-684.1854 286.2036,-680.8311 291.9682,-689.7205 296.2535,-684.1854"/>
</g>
<!-- 10 -->
<g id="node13" class="node">
<title>10</title>
<ellipse fill="none" stroke="#000000" cx="360.0467" cy="-666" rx="42.4939" ry="18"/>
<text text-anchor="middle" x="360.0467" y="-662.3" font-family="Times,serif" font-size="14.00" fill="#000000">ASSIGN</text>
</g>
<!-- 6&#45;&gt;10 -->
<g id="edge12" class="edge">
<title>6&#45;&gt;10</title>
<path fill="none" stroke="#000000" d="M360.0467,-719.8314C360.0467,-712.131 360.0467,-702.9743 360.0467,-694.4166"/>
<polygon fill="#000000" stroke="#000000" points="363.5468,-694.4132 360.0467,-684.4133 356.5468,-694.4133 363.5468,-694.4132"/>
</g>
<!-- 11 -->
<g id="node15" class="node">
<title>11</title>
<ellipse fill="none" stroke="#000000" cx="455.0467" cy="-666" rx="34.394" ry="18"/>
<text text-anchor="middle" x="455.0467" y="-662.3" font-family="Times,serif" font-size="14.00" fill="#000000">explist</text>
</g>
<!-- 6&#45;&gt;11 -->
<g id="edge14" class="edge">
<title>6&#45;&gt;11</title>
<path fill="none" stroke="#000000" d="M377.9155,-724.4574C391.702,-714.0087 411.0332,-699.3576 426.8936,-687.3371"/>
<polygon fill="#000000" stroke="#000000" points="429.4349,-689.8027 435.2905,-680.9731 425.2067,-684.2239 429.4349,-689.8027"/>
</g>
<!-- 8 -->
<g id="node10" class="node">
<title>8</title>
<ellipse fill="none" stroke="#000000" cx="271.0467" cy="-594" rx="27" ry="18"/>
<text text-anchor="middle" x="271.0467" y="-590.3" font-family="Times,serif" font-size="14.00" fill="#000000">var</text>
</g>
<!-- 7&#45;&gt;8 -->
<g id="edge9" class="edge">
<title>7&#45;&gt;8</title>
<path fill="none" stroke="#000000" d="M268.0561,-647.8314C268.4839,-640.131 268.9926,-630.9743 269.468,-622.4166"/>
<polygon fill="#000000" stroke="#000000" points="272.9636,-622.592 270.0238,-612.4133 265.9743,-622.2037 272.9636,-622.592"/>
</g>
<!-- 9 -->
<g id="node11" class="node">
<title>9</title>
<ellipse fill="none" stroke="#000000" cx="271.0467" cy="-522" rx="37.0935" ry="18"/>
<text text-anchor="middle" x="271.0467" y="-518.3" font-family="Times,serif" font-size="14.00" fill="#000000">NAME</text>
</g>
<!-- 8&#45;&gt;9 -->
<g id="edge10" class="edge">
<title>8&#45;&gt;9</title>
<path fill="none" stroke="#000000" d="M271.0467,-575.8314C271.0467,-568.131 271.0467,-558.9743 271.0467,-550.4166"/>
<polygon fill="#000000" stroke="#000000" points="274.5468,-550.4132 271.0467,-540.4133 267.5468,-550.4133 274.5468,-550.4132"/>
</g>
<!-- NAME9 -->
<g id="node12" class="node">
<title>NAME9</title>
<ellipse fill="none" stroke="#000000" cx="271.0467" cy="-450" rx="27" ry="18"/>
<text text-anchor="middle" x="271.0467" y="-446.3" font-family="Times,serif" font-size="14.00" fill="#000000">n</text>
</g>
<!-- 9&#45;&gt;NAME9 -->
<g id="edge11" class="edge">
<title>9&#45;&gt;NAME9</title>
<path fill="none" stroke="#000000" d="M271.0467,-503.8314C271.0467,-496.131 271.0467,-486.9743 271.0467,-478.4166"/>
<polygon fill="#000000" stroke="#000000" points="274.5468,-478.4132 271.0467,-468.4133 267.5468,-478.4133 274.5468,-478.4132"/>
</g>
<!-- ASSIGN10 -->
<g id="node14" class="node">
<title>ASSIGN10</title>
<ellipse fill="none" stroke="#000000" cx="357.0467" cy="-594" rx="27" ry="18"/>
<text text-anchor="middle" x="357.0467" y="-590.3" font-family="Times,serif" font-size="14.00" fill="#000000">=</text>
</g>
<!-- 10&#45;&gt;ASSIGN10 -->
<g id="edge13" class="edge">
<title>10&#45;&gt;ASSIGN10</title>
<path fill="none" stroke="#000000" d="M359.2897,-647.8314C358.9688,-640.131 358.5873,-630.9743 358.2307,-622.4166"/>
<polygon fill="#000000" stroke="#000000" points="361.7273,-622.2589 357.8139,-612.4133 354.7334,-622.5503 361.7273,-622.2589"/>
</g>
<!-- 12 -->
<g id="node16" class="node">
<title>12</title>
<ellipse fill="none" stroke="#000000" cx="455.0467" cy="-594" rx="52.7911" ry="18"/>
<text text-anchor="middle" x="455.0467" y="-590.3" font-family="Times,serif" font-size="14.00" fill="#000000">functioncall</text>
</g>
<!-- 11&#45;&gt;12 -->
<g id="edge15" class="edge">
<title>11&#45;&gt;12</title>
<path fill="none" stroke="#000000" d="M455.0467,-647.8314C455.0467,-640.131 455.0467,-630.9743 455.0467,-622.4166"/>
<polygon fill="#000000" stroke="#000000" points="458.5468,-622.4132 455.0467,-612.4133 451.5468,-622.4133 458.5468,-622.4132"/>
</g>
<!-- 13 -->
<g id="node17" class="node">
<title>13</title>
<ellipse fill="none" stroke="#000000" cx="452.0467" cy="-522" rx="27" ry="18"/>
<text text-anchor="middle" x="452.0467" y="-518.3" font-family="Times,serif" font-size="14.00" fill="#000000">var</text>
</g>
<!-- 12&#45;&gt;13 -->
<g id="edge16" class="edge">
<title>12&#45;&gt;13</title>
<path fill="none" stroke="#000000" d="M454.2897,-575.8314C453.9688,-568.131 453.5873,-558.9743 453.2307,-550.4166"/>
<polygon fill="#000000" stroke="#000000" points="456.7273,-550.2589 452.8139,-540.4133 449.7334,-550.5503 456.7273,-550.2589"/>
</g>
<!-- 16 -->
<g id="node22" class="node">
<title>16</title>
<ellipse fill="none" stroke="#000000" cx="540.0467" cy="-522" rx="34.394" ry="18"/>
<text text-anchor="middle" x="540.0467" y="-518.3" font-family="Times,serif" font-size="14.00" fill="#000000">explist</text>
</g>
<!-- 12&#45;&gt;16 -->
<g id="edge21" class="edge">
<title>12&#45;&gt;16</title>
<path fill="none" stroke="#000000" d="M474.7611,-577.3008C486.4279,-567.4183 501.3471,-554.7808 513.9778,-544.0819"/>
<polygon fill="#000000" stroke="#000000" points="516.522,-546.5137 521.8903,-537.3796 511.9976,-541.1724 516.522,-546.5137"/>
</g>
<!-- 14 -->
<g id="node18" class="node">
<title>14</title>
<ellipse fill="none" stroke="#000000" cx="360.0467" cy="-450" rx="37.0935" ry="18"/>
<text text-anchor="middle" x="360.0467" y="-446.3" font-family="Times,serif" font-size="14.00" fill="#000000">NAME</text>
</g>
<!-- 13&#45;&gt;14 -->
<g id="edge17" class="edge">
<title>13&#45;&gt;14</title>
<path fill="none" stroke="#000000" d="M434.3082,-508.1177C421.0912,-497.774 402.7921,-483.4529 387.6663,-471.6153"/>
<polygon fill="#000000" stroke="#000000" points="389.6742,-468.7423 379.642,-465.3354 385.36,-474.2548 389.6742,-468.7423"/>
</g>
<!-- 15 -->
<g id="node20" class="node">
<title>15</title>
<ellipse fill="none" stroke="#000000" cx="452.0467" cy="-450" rx="37.0935" ry="18"/>
<text text-anchor="middle" x="452.0467" y="-446.3" font-family="Times,serif" font-size="14.00" fill="#000000">NAME</text>
</g>
<!-- 13&#45;&gt;15 -->
<g id="edge19" class="edge">
<title>13&#45;&gt;15</title>
<path fill="none" stroke="#000000" d="M452.0467,-503.8314C452.0467,-496.131 452.0467,-486.9743 452.0467,-478.4166"/>
<polygon fill="#000000" stroke="#000000" points="455.5468,-478.4132 452.0467,-468.4133 448.5468,-478.4133 455.5468,-478.4132"/>
</g>
<!-- NAME14 -->
<g id="node19" class="node">
<title>NAME14</title>
<ellipse fill="none" stroke="#000000" cx="360.0467" cy="-378" rx="27" ry="18"/>
<text text-anchor="middle" x="360.0467" y="-374.3" font-family="Times,serif" font-size="14.00" fill="#000000">io</text>
</g>
<!-- 14&#45;&gt;NAME14 -->
<g id="edge18" class="edge">
<title>14&#45;&gt;NAME14</title>
<path fill="none" stroke="#000000" d="M360.0467,-431.8314C360.0467,-424.131 360.0467,-414.9743 360.0467,-406.4166"/>
<polygon fill="#000000" stroke="#000000" points="363.5468,-406.4132 360.0467,-396.4133 356.5468,-406.4133 363.5468,-406.4132"/>
</g>
<!-- NAME15 -->
<g id="node21" class="node">
<title>NAME15</title>
<ellipse fill="none" stroke="#000000" cx="452.0467" cy="-378" rx="27" ry="18"/>
<text text-anchor="middle" x="452.0467" y="-374.3" font-family="Times,serif" font-size="14.00" fill="#000000">read</text>
</g>
<!-- 15&#45;&gt;NAME15 -->
<g id="edge20" class="edge">
<title>15&#45;&gt;NAME15</title>
<path fill="none" stroke="#000000" d="M452.0467,-431.8314C452.0467,-424.131 452.0467,-414.9743 452.0467,-406.4166"/>
<polygon fill="#000000" stroke="#000000" points="455.5468,-406.4132 452.0467,-396.4133 448.5468,-406.4133 455.5468,-406.4132"/>
</g>
<!-- 17 -->
<g id="node23" class="node">
<title>17</title>
<ellipse fill="none" stroke="#000000" cx="549.0467" cy="-450" rx="42.4939" ry="18"/>
<text text-anchor="middle" x="549.0467" y="-446.3" font-family="Times,serif" font-size="14.00" fill="#000000">STRING</text>
</g>
<!-- 16&#45;&gt;17 -->
<g id="edge22" class="edge">
<title>16&#45;&gt;17</title>
<path fill="none" stroke="#000000" d="M542.3178,-503.8314C543.2803,-496.131 544.4249,-486.9743 545.4946,-478.4166"/>
<polygon fill="#000000" stroke="#000000" points="548.9776,-478.7702 546.7451,-468.4133 542.0316,-477.9019 548.9776,-478.7702"/>
</g>
<!-- STRING17 -->
<g id="node24" class="node">
<title>STRING17</title>
<ellipse fill="none" stroke="#000000" cx="549.0467" cy="-378" rx="42.4939" ry="18"/>
<text text-anchor="middle" x="549.0467" y="-374.3" font-family="Times,serif" font-size="14.00" fill="#000000">*number</text>
</g>
<!-- 17&#45;&gt;STRING17 -->
<g id="edge23" class="edge">
<title>17&#45;&gt;STRING17</title>
<path fill="none" stroke="#000000" d="M549.0467,-431.8314C549.0467,-424.131 549.0467,-414.9743 549.0467,-406.4166"/>
<polygon fill="#000000" stroke="#000000" points="552.5468,-406.4132 549.0467,-396.4133 545.5468,-406.4133 552.5468,-406.4132"/>
</g>
<!-- 19 -->
<g id="node26" class="node">
<title>19</title>
<ellipse fill="none" stroke="#000000" cx="548.0467" cy="-666" rx="37.0935" ry="18"/>
<text text-anchor="middle" x="548.0467" y="-662.3" font-family="Times,serif" font-size="14.00" fill="#000000">NAME</text>
</g>
<!-- 18&#45;&gt;19 -->
<g id="edge25" class="edge">
<title>18&#45;&gt;19</title>
<path fill="none" stroke="#000000" d="M669.021,-724.4574C644.8453,-712.7751 609.7984,-695.8397 583.6434,-683.2011"/>
<polygon fill="#000000" stroke="#000000" points="584.973,-679.9564 574.4463,-678.7568 581.9273,-686.2591 584.973,-679.9564"/>
</g>
<!-- 20 -->
<g id="node28" class="node">
<title>20</title>
<ellipse fill="none" stroke="#000000" cx="645.0467" cy="-666" rx="42.4939" ry="18"/>
<text text-anchor="middle" x="645.0467" y="-662.3" font-family="Times,serif" font-size="14.00" fill="#000000">ASSIGN</text>
</g>
<!-- 18&#45;&gt;20 -->
<g id="edge27" class="edge">
<title>18&#45;&gt;20</title>
<path fill="none" stroke="#000000" d="M684.459,-720.5708C678.1356,-711.8153 670.3547,-701.0418 663.3815,-691.3867"/>
<polygon fill="#000000" stroke="#000000" points="666.2109,-689.3263 657.5185,-683.2687 660.5361,-693.4247 666.2109,-689.3263"/>
</g>
<!-- 21 -->
<g id="node30" class="node">
<title>21</title>
<ellipse fill="none" stroke="#000000" cx="749.0467" cy="-666" rx="44.393" ry="18"/>
<text text-anchor="middle" x="749.0467" y="-662.3" font-family="Times,serif" font-size="14.00" fill="#000000">num_exp</text>
</g>
<!-- 18&#45;&gt;21 -->
<g id="edge29" class="edge">
<title>18&#45;&gt;21</title>
<path fill="none" stroke="#000000" d="M709.6345,-720.5708C715.9579,-711.8153 723.7388,-701.0418 730.7119,-691.3867"/>
<polygon fill="#000000" stroke="#000000" points="733.5573,-693.4247 736.5749,-683.2687 727.8826,-689.3263 733.5573,-693.4247"/>
</g>
<!-- 22 -->
<g id="node32" class="node">
<title>22</title>
<ellipse fill="none" stroke="#000000" cx="838.0467" cy="-666" rx="27" ry="18"/>
<text text-anchor="middle" x="838.0467" y="-662.3" font-family="Times,serif" font-size="14.00" fill="#000000">var</text>
</g>
<!-- 18&#45;&gt;22 -->
<g id="edge31" class="edge">
<title>18&#45;&gt;22</title>
<path fill="none" stroke="#000000" d="M724.2329,-724.1177C748.0755,-711.9428 782.7091,-694.2575 807.5013,-681.5976"/>
<polygon fill="#000000" stroke="#000000" points="809.164,-684.6786 816.4784,-677.0136 805.9806,-678.4443 809.164,-684.6786"/>
</g>
<!-- 24 -->
<g id="node35" class="node">
<title>24</title>
<ellipse fill="none" stroke="#000000" cx="918.0467" cy="-666" rx="30.5947" ry="18"/>
<text text-anchor="middle" x="918.0467" y="-662.3" font-family="Times,serif" font-size="14.00" fill="#000000">block</text>
</g>
<!-- 18&#45;&gt;24 -->
<g id="edge34" class="edge">
<title>18&#45;&gt;24</title>
<path fill="none" stroke="#000000" d="M732.6221,-728.1914C768.5887,-718.0312 825.6236,-701.2499 874.0467,-684 877.1566,-682.8921 880.3689,-681.691 883.5757,-680.4529"/>
<polygon fill="#000000" stroke="#000000" points="885.0682,-683.6261 893.0713,-676.6834 882.4855,-677.12 885.0682,-683.6261"/>
</g>
<!-- NAME19 -->
<g id="node27" class="node">
<title>NAME19</title>
<ellipse fill="none" stroke="#000000" cx="553.0467" cy="-594" rx="27" ry="18"/>
<text text-anchor="middle" x="553.0467" y="-590.3" font-family="Times,serif" font-size="14.00" fill="#000000">i</text>
</g>
<!-- 19&#45;&gt;NAME19 -->
<g id="edge26" class="edge">
<title>19&#45;&gt;NAME19</title>
<path fill="none" stroke="#000000" d="M549.3084,-647.8314C549.8432,-640.131 550.479,-630.9743 551.0733,-622.4166"/>
<polygon fill="#000000" stroke="#000000" points="554.5667,-622.6317 551.768,-612.4133 547.5836,-622.1467 554.5667,-622.6317"/>
</g>
<!-- ASSIGN20 -->
<g id="node29" class="node">
<title>ASSIGN20</title>
<ellipse fill="none" stroke="#000000" cx="645.0467" cy="-594" rx="27" ry="18"/>
<text text-anchor="middle" x="645.0467" y="-590.3" font-family="Times,serif" font-size="14.00" fill="#000000">=</text>
</g>
<!-- 20&#45;&gt;ASSIGN20 -->
<g id="edge28" class="edge">
<title>20&#45;&gt;ASSIGN20</title>
<path fill="none" stroke="#000000" d="M645.0467,-647.8314C645.0467,-640.131 645.0467,-630.9743 645.0467,-622.4166"/>
<polygon fill="#000000" stroke="#000000" points="648.5468,-622.4132 645.0467,-612.4133 641.5468,-622.4133 648.5468,-622.4132"/>
</g>
<!-- num_exp21 -->
<g id="node31" class="node">
<title>num_exp21</title>
<ellipse fill="none" stroke="#000000" cx="749.0467" cy="-594" rx="27" ry="18"/>
<text text-anchor="middle" x="749.0467" y="-590.3" font-family="Times,serif" font-size="14.00" fill="#000000">2</text>
</g>
<!-- 21&#45;&gt;num_exp21 -->
<g id="edge30" class="edge">
<title>21&#45;&gt;num_exp21</title>
<path fill="none" stroke="#000000" d="M749.0467,-647.8314C749.0467,-640.131 749.0467,-630.9743 749.0467,-622.4166"/>
<polygon fill="#000000" stroke="#000000" points="752.5468,-622.4132 749.0467,-612.4133 745.5468,-622.4133 752.5468,-622.4132"/>
</g>
<!-- 23 -->
<g id="node33" class="node">
<title>23</title>
<ellipse fill="none" stroke="#000000" cx="834.0467" cy="-594" rx="37.0935" ry="18"/>
<text text-anchor="middle" x="834.0467" y="-590.3" font-family="Times,serif" font-size="14.00" fill="#000000">NAME</text>
</g>
<!-- 22&#45;&gt;23 -->
<g id="edge32" class="edge">
<title>22&#45;&gt;23</title>
<path fill="none" stroke="#000000" d="M837.0373,-647.8314C836.6095,-640.131 836.1008,-630.9743 835.6254,-622.4166"/>
<polygon fill="#000000" stroke="#000000" points="839.1191,-622.2037 835.0697,-612.4133 832.1299,-622.592 839.1191,-622.2037"/>
</g>
<!-- NAME23 -->
<g id="node34" class="node">
<title>NAME23</title>
<ellipse fill="none" stroke="#000000" cx="834.0467" cy="-522" rx="27" ry="18"/>
<text text-anchor="middle" x="834.0467" y="-518.3" font-family="Times,serif" font-size="14.00" fill="#000000">n</text>
</g>
<!-- 23&#45;&gt;NAME23 -->
<g id="edge33" class="edge">
<title>23&#45;&gt;NAME23</title>
<path fill="none" stroke="#000000" d="M834.0467,-575.8314C834.0467,-568.131 834.0467,-558.9743 834.0467,-550.4166"/>
<polygon fill="#000000" stroke="#000000" points="837.5468,-550.4132 834.0467,-540.4133 830.5468,-550.4133 837.5468,-550.4132"/>
</g>
<!-- 25 -->
<g id="node36" class="node">
<title>25</title>
<ellipse fill="none" stroke="#000000" cx="922.0467" cy="-594" rx="32.4942" ry="18"/>
<text text-anchor="middle" x="922.0467" y="-590.3" font-family="Times,serif" font-size="14.00" fill="#000000">chunk</text>
</g>
<!-- 24&#45;&gt;25 -->
<g id="edge35" class="edge">
<title>24&#45;&gt;25</title>
<path fill="none" stroke="#000000" d="M919.0561,-647.8314C919.4839,-640.131 919.9926,-630.9743 920.468,-622.4166"/>
<polygon fill="#000000" stroke="#000000" points="923.9636,-622.592 921.0238,-612.4133 916.9743,-622.2037 923.9636,-622.592"/>
</g>
<!-- 26 -->
<g id="node37" class="node">
<title>26</title>
<ellipse fill="none" stroke="#000000" cx="922.0467" cy="-522" rx="33.2948" ry="18"/>
<text text-anchor="middle" x="922.0467" y="-518.3" font-family="Times,serif" font-size="14.00" fill="#000000">stat:IF</text>
</g>
<!-- 25&#45;&gt;26 -->
<g id="edge36" class="edge">
<title>25&#45;&gt;26</title>
<path fill="none" stroke="#000000" d="M922.0467,-575.8314C922.0467,-568.131 922.0467,-558.9743 922.0467,-550.4166"/>
<polygon fill="#000000" stroke="#000000" points="925.5468,-550.4132 922.0467,-540.4133 918.5468,-550.4133 925.5468,-550.4132"/>
</g>
<!-- 27 -->
<g id="node38" class="node">
<title>27</title>
<ellipse fill="none" stroke="#000000" cx="868.0467" cy="-450" rx="27" ry="18"/>
<text text-anchor="middle" x="868.0467" y="-446.3" font-family="Times,serif" font-size="14.00" fill="#000000">exp</text>
</g>
<!-- 26&#45;&gt;27 -->
<g id="edge37" class="edge">
<title>26&#45;&gt;27</title>
<path fill="none" stroke="#000000" d="M909.5223,-505.3008C902.6094,-496.0836 893.8992,-484.4699 886.2475,-474.2677"/>
<polygon fill="#000000" stroke="#000000" points="888.9318,-472.0134 880.1317,-466.1134 883.3318,-476.2134 888.9318,-472.0134"/>
</g>
<!-- 36 -->
<g id="node52" class="node">
<title>36</title>
<ellipse fill="none" stroke="#000000" cx="957.0467" cy="-450" rx="30.5947" ry="18"/>
<text text-anchor="middle" x="957.0467" y="-446.3" font-family="Times,serif" font-size="14.00" fill="#000000">block</text>
</g>
<!-- 26&#45;&gt;36 -->
<g id="edge51" class="edge">
<title>26&#45;&gt;36</title>
<path fill="none" stroke="#000000" d="M930.5192,-504.5708C934.5734,-496.2309 939.5176,-486.0598 944.0342,-476.7686"/>
<polygon fill="#000000" stroke="#000000" points="947.3067,-478.0421 948.5309,-467.5182 941.0111,-474.9817 947.3067,-478.0421"/>
</g>
<!-- 28 -->
<g id="node39" class="node">
<title>28</title>
<ellipse fill="none" stroke="#000000" cx="662.0467" cy="-378" rx="27" ry="18"/>
<text text-anchor="middle" x="662.0467" y="-374.3" font-family="Times,serif" font-size="14.00" fill="#000000">exp</text>
</g>
<!-- 27&#45;&gt;28 -->
<g id="edge38" class="edge">
<title>27&#45;&gt;28</title>
<path fill="none" stroke="#000000" d="M844.0127,-441.5998C807.363,-428.7901 737.3775,-404.3292 695.6938,-389.7601"/>
<polygon fill="#000000" stroke="#000000" points="696.8409,-386.4535 686.246,-386.458 694.5312,-393.0615 696.8409,-386.4535"/>
</g>
<!-- 34 -->
<g id="node48" class="node">
<title>34</title>
<ellipse fill="none" stroke="#000000" cx="793.0467" cy="-378" rx="30.5947" ry="18"/>
<text text-anchor="middle" x="793.0467" y="-374.3" font-family="Times,serif" font-size="14.00" fill="#000000">binop</text>
</g>
<!-- 27&#45;&gt;34 -->
<g id="edge47" class="edge">
<title>27&#45;&gt;34</title>
<path fill="none" stroke="#000000" d="M852.5067,-435.0816C842.0885,-425.0801 828.1789,-411.7269 816.4325,-400.4504"/>
<polygon fill="#000000" stroke="#000000" points="818.7221,-397.7966 809.0843,-393.3961 813.8744,-402.8463 818.7221,-397.7966"/>
</g>
<!-- 35 -->
<g id="node50" class="node">
<title>35</title>
<ellipse fill="none" stroke="#000000" cx="886.0467" cy="-378" rx="44.393" ry="18"/>
<text text-anchor="middle" x="886.0467" y="-374.3" font-family="Times,serif" font-size="14.00" fill="#000000">num_exp</text>
</g>
<!-- 27&#45;&gt;35 -->
<g id="edge49" class="edge">
<title>27&#45;&gt;35</title>
<path fill="none" stroke="#000000" d="M872.4962,-432.2022C874.4716,-424.3005 876.844,-414.811 879.0477,-405.9959"/>
<polygon fill="#000000" stroke="#000000" points="882.4935,-406.6434 881.5234,-396.0931 875.7025,-404.9456 882.4935,-406.6434"/>
</g>
<!-- 29 -->
<g id="node40" class="node">
<title>29</title>
<ellipse fill="none" stroke="#000000" cx="566.0467" cy="-306" rx="27" ry="18"/>
<text text-anchor="middle" x="566.0467" y="-302.3" font-family="Times,serif" font-size="14.00" fill="#000000">var</text>
</g>
<!-- 28&#45;&gt;29 -->
<g id="edge39" class="edge">
<title>28&#45;&gt;29</title>
<path fill="none" stroke="#000000" d="M643.9898,-364.4574C629.3742,-353.4956 608.5917,-337.9088 592.1619,-325.5864"/>
<polygon fill="#000000" stroke="#000000" points="594.1226,-322.682 584.0226,-319.4819 589.9226,-328.282 594.1226,-322.682"/>
</g>
<!-- 31 -->
<g id="node43" class="node">
<title>31</title>
<ellipse fill="none" stroke="#000000" cx="645.0467" cy="-306" rx="30.5947" ry="18"/>
<text text-anchor="middle" x="645.0467" y="-302.3" font-family="Times,serif" font-size="14.00" fill="#000000">binop</text>
</g>
<!-- 28&#45;&gt;31 -->
<g id="edge42" class="edge">
<title>28&#45;&gt;31</title>
<path fill="none" stroke="#000000" d="M657.8445,-360.2022C655.9646,-352.2406 653.7042,-342.6671 651.6096,-333.7957"/>
<polygon fill="#000000" stroke="#000000" points="654.9639,-332.7706 649.2595,-323.8425 648.1512,-334.3792 654.9639,-332.7706"/>
</g>
<!-- 32 -->
<g id="node45" class="node">
<title>32</title>
<ellipse fill="none" stroke="#000000" cx="721.0467" cy="-306" rx="27" ry="18"/>
<text text-anchor="middle" x="721.0467" y="-302.3" font-family="Times,serif" font-size="14.00" fill="#000000">var</text>
</g>
<!-- 28&#45;&gt;32 -->
<g id="edge44" class="edge">
<title>28&#45;&gt;32</title>
<path fill="none" stroke="#000000" d="M675.1407,-362.0209C682.8556,-352.6061 692.7656,-340.5126 701.4022,-329.973"/>
<polygon fill="#000000" stroke="#000000" points="704.3582,-331.8877 707.9893,-321.9345 698.9439,-327.4509 704.3582,-331.8877"/>
</g>
<!-- 30 -->
<g id="node41" class="node">
<title>30</title>
<ellipse fill="none" stroke="#000000" cx="563.0467" cy="-234" rx="37.0935" ry="18"/>
<text text-anchor="middle" x="563.0467" y="-230.3" font-family="Times,serif" font-size="14.00" fill="#000000">NAME</text>
</g>
<!-- 29&#45;&gt;30 -->
<g id="edge40" class="edge">
<title>29&#45;&gt;30</title>
<path fill="none" stroke="#000000" d="M565.2897,-287.8314C564.9688,-280.131 564.5873,-270.9743 564.2307,-262.4166"/>
<polygon fill="#000000" stroke="#000000" points="567.7273,-262.2589 563.8139,-252.4133 560.7334,-262.5503 567.7273,-262.2589"/>
</g>
<!-- NAME30 -->
<g id="node42" class="node">
<title>NAME30</title>
<ellipse fill="none" stroke="#000000" cx="563.0467" cy="-162" rx="27" ry="18"/>
<text text-anchor="middle" x="563.0467" y="-158.3" font-family="Times,serif" font-size="14.00" fill="#000000">n</text>
</g>
<!-- 30&#45;&gt;NAME30 -->
<g id="edge41" class="edge">
<title>30&#45;&gt;NAME30</title>
<path fill="none" stroke="#000000" d="M563.0467,-215.8314C563.0467,-208.131 563.0467,-198.9743 563.0467,-190.4166"/>
<polygon fill="#000000" stroke="#000000" points="566.5468,-190.4132 563.0467,-180.4133 559.5468,-190.4133 566.5468,-190.4132"/>
</g>
<!-- binop31 -->
<g id="node44" class="node">
<title>binop31</title>
<ellipse fill="none" stroke="#000000" cx="645.0467" cy="-234" rx="27" ry="18"/>
<text text-anchor="middle" x="645.0467" y="-230.3" font-family="Times,serif" font-size="14.00" fill="#000000">%</text>
</g>
<!-- 31&#45;&gt;binop31 -->
<g id="edge43" class="edge">
<title>31&#45;&gt;binop31</title>
<path fill="none" stroke="#000000" d="M645.0467,-287.8314C645.0467,-280.131 645.0467,-270.9743 645.0467,-262.4166"/>
<polygon fill="#000000" stroke="#000000" points="648.5468,-262.4132 645.0467,-252.4133 641.5468,-262.4133 648.5468,-262.4132"/>
</g>
<!-- 33 -->
<g id="node46" class="node">
<title>33</title>
<ellipse fill="none" stroke="#000000" cx="727.0467" cy="-234" rx="37.0935" ry="18"/>
<text text-anchor="middle" x="727.0467" y="-230.3" font-family="Times,serif" font-size="14.00" fill="#000000">NAME</text>
</g>
<!-- 32&#45;&gt;33 -->
<g id="edge45" class="edge">
<title>32&#45;&gt;33</title>
<path fill="none" stroke="#000000" d="M722.5608,-287.8314C723.2025,-280.131 723.9655,-270.9743 724.6787,-262.4166"/>
<polygon fill="#000000" stroke="#000000" points="728.1696,-262.6694 725.5123,-252.4133 721.1938,-262.088 728.1696,-262.6694"/>
</g>
<!-- NAME33 -->
<g id="node47" class="node">
<title>NAME33</title>
<ellipse fill="none" stroke="#000000" cx="727.0467" cy="-162" rx="27" ry="18"/>
<text text-anchor="middle" x="727.0467" y="-158.3" font-family="Times,serif" font-size="14.00" fill="#000000">i</text>
</g>
<!-- 33&#45;&gt;NAME33 -->
<g id="edge46" class="edge">
<title>33&#45;&gt;NAME33</title>
<path fill="none" stroke="#000000" d="M727.0467,-215.8314C727.0467,-208.131 727.0467,-198.9743 727.0467,-190.4166"/>
<polygon fill="#000000" stroke="#000000" points="730.5468,-190.4132 727.0467,-180.4133 723.5468,-190.4133 730.5468,-190.4132"/>
</g>
<!-- binop34 -->
<g id="node49" class="node">
<title>binop34</title>
<ellipse fill="none" stroke="#000000" cx="793.0467" cy="-306" rx="27" ry="18"/>
<text text-anchor="middle" x="793.0467" y="-302.3" font-family="Times,serif" font-size="14.00" fill="#000000">==</text>
</g>
<!-- 34&#45;&gt;binop34 -->
<g id="edge48" class="edge">
<title>34&#45;&gt;binop34</title>
<path fill="none" stroke="#000000" d="M793.0467,-359.8314C793.0467,-352.131 793.0467,-342.9743 793.0467,-334.4166"/>
<polygon fill="#000000" stroke="#000000" points="796.5468,-334.4132 793.0467,-324.4133 789.5468,-334.4133 796.5468,-334.4132"/>
</g>
<!-- num_exp35 -->
<g id="node51" class="node">
<title>num_exp35</title>
<ellipse fill="none" stroke="#000000" cx="885.0467" cy="-306" rx="27" ry="18"/>
<text text-anchor="middle" x="885.0467" y="-302.3" font-family="Times,serif" font-size="14.00" fill="#000000">0</text>
</g>
<!-- 35&#45;&gt;num_exp35 -->
<g id="edge50" class="edge">
<title>35&#45;&gt;num_exp35</title>
<path fill="none" stroke="#000000" d="M885.7944,-359.8314C885.6874,-352.131 885.5602,-342.9743 885.4414,-334.4166"/>
<polygon fill="#000000" stroke="#000000" points="888.9411,-334.3637 885.3025,-324.4133 881.9418,-334.4609 888.9411,-334.3637"/>
</g>
<!-- 37 -->
<g id="node53" class="node">
<title>37</title>
<ellipse fill="none" stroke="#000000" cx="1057.0467" cy="-378" rx="32.4942" ry="18"/>
<text text-anchor="middle" x="1057.0467" y="-374.3" font-family="Times,serif" font-size="14.00" fill="#000000">chunk</text>
</g>
<!-- 36&#45;&gt;37 -->
<g id="edge52" class="edge">
<title>36&#45;&gt;37</title>
<path fill="none" stroke="#000000" d="M976.8035,-435.7751C991.6356,-425.096 1012.1551,-410.322 1028.731,-398.3873"/>
<polygon fill="#000000" stroke="#000000" points="1030.9184,-401.1252 1036.9887,-392.4418 1026.8282,-395.4445 1030.9184,-401.1252"/>
</g>
<!-- 38 -->
<g id="node54" class="node">
<title>38</title>
<ellipse fill="none" stroke="#000000" cx="983.0467" cy="-306" rx="52.7911" ry="18"/>
<text text-anchor="middle" x="983.0467" y="-302.3" font-family="Times,serif" font-size="14.00" fill="#000000">functioncall</text>
</g>
<!-- 37&#45;&gt;38 -->
<g id="edge53" class="edge">
<title>37&#45;&gt;38</title>
<path fill="none" stroke="#000000" d="M1040.6237,-362.0209C1031.0984,-352.753 1018.9053,-340.8894 1008.194,-330.4676"/>
<polygon fill="#000000" stroke="#000000" points="1010.3238,-327.6565 1000.7157,-323.1915 1005.4423,-332.6736 1010.3238,-327.6565"/>
</g>
<!-- 45 -->
<g id="node64" class="node">
<title>45</title>
<ellipse fill="none" stroke="#000000" cx="1132.0467" cy="-306" rx="52.7911" ry="18"/>
<text text-anchor="middle" x="1132.0467" y="-302.3" font-family="Times,serif" font-size="14.00" fill="#000000">functioncall</text>
</g>
<!-- 37&#45;&gt;45 -->
<g id="edge63" class="edge">
<title>37&#45;&gt;45</title>
<path fill="none" stroke="#000000" d="M1073.3206,-362.3771C1083.1218,-352.9679 1095.8075,-340.7896 1106.8792,-330.1608"/>
<polygon fill="#000000" stroke="#000000" points="1109.4411,-332.5531 1114.2312,-323.1029 1104.5934,-327.5034 1109.4411,-332.5531"/>
</g>
<!-- 51 -->
<g id="node73" class="node">
<title>51</title>
<ellipse fill="none" stroke="#000000" cx="1360.0467" cy="-306" rx="52.7911" ry="18"/>
<text text-anchor="middle" x="1360.0467" y="-302.3" font-family="Times,serif" font-size="14.00" fill="#000000">functioncall</text>
</g>
<!-- 37&#45;&gt;51 -->
<g id="edge72" class="edge">
<title>37&#45;&gt;51</title>
<path fill="none" stroke="#000000" d="M1086.9288,-370.8993C1138.0187,-358.7591 1242.8153,-333.857 1306.708,-318.6745"/>
<polygon fill="#000000" stroke="#000000" points="1307.6768,-322.0419 1316.5967,-316.3247 1306.0585,-315.2315 1307.6768,-322.0419"/>
</g>
<!-- 39 -->
<g id="node55" class="node">
<title>39</title>
<ellipse fill="none" stroke="#000000" cx="901.0467" cy="-234" rx="27" ry="18"/>
<text text-anchor="middle" x="901.0467" y="-230.3" font-family="Times,serif" font-size="14.00" fill="#000000">var</text>
</g>
<!-- 38&#45;&gt;39 -->
<g id="edge54" class="edge">
<title>38&#45;&gt;39</title>
<path fill="none" stroke="#000000" d="M963.6139,-288.937C952.1142,-278.8397 937.45,-265.9639 925.2092,-255.2158"/>
<polygon fill="#000000" stroke="#000000" points="927.3965,-252.4787 917.5728,-248.5107 922.7779,-257.7388 927.3965,-252.4787"/>
</g>
<!-- 42 -->
<g id="node60" class="node">
<title>42</title>
<ellipse fill="none" stroke="#000000" cx="983.0467" cy="-234" rx="34.394" ry="18"/>
<text text-anchor="middle" x="983.0467" y="-230.3" font-family="Times,serif" font-size="14.00" fill="#000000">explist</text>
</g>
<!-- 38&#45;&gt;42 -->
<g id="edge59" class="edge">
<title>38&#45;&gt;42</title>
<path fill="none" stroke="#000000" d="M983.0467,-287.8314C983.0467,-280.131 983.0467,-270.9743 983.0467,-262.4166"/>
<polygon fill="#000000" stroke="#000000" points="986.5468,-262.4132 983.0467,-252.4133 979.5468,-262.4133 986.5468,-262.4132"/>
</g>
<!-- 40 -->
<g id="node56" class="node">
<title>40</title>
<ellipse fill="none" stroke="#000000" cx="809.0467" cy="-162" rx="37.0935" ry="18"/>
<text text-anchor="middle" x="809.0467" y="-158.3" font-family="Times,serif" font-size="14.00" fill="#000000">NAME</text>
</g>
<!-- 39&#45;&gt;40 -->
<g id="edge55" class="edge">
<title>39&#45;&gt;40</title>
<path fill="none" stroke="#000000" d="M883.3082,-220.1177C870.0912,-209.774 851.7921,-195.4529 836.6663,-183.6153"/>
<polygon fill="#000000" stroke="#000000" points="838.6742,-180.7423 828.642,-177.3354 834.36,-186.2548 838.6742,-180.7423"/>
</g>
<!-- 41 -->
<g id="node58" class="node">
<title>41</title>
<ellipse fill="none" stroke="#000000" cx="901.0467" cy="-162" rx="37.0935" ry="18"/>
<text text-anchor="middle" x="901.0467" y="-158.3" font-family="Times,serif" font-size="14.00" fill="#000000">NAME</text>
</g>
<!-- 39&#45;&gt;41 -->
<g id="edge57" class="edge">
<title>39&#45;&gt;41</title>
<path fill="none" stroke="#000000" d="M901.0467,-215.8314C901.0467,-208.131 901.0467,-198.9743 901.0467,-190.4166"/>
<polygon fill="#000000" stroke="#000000" points="904.5468,-190.4132 901.0467,-180.4133 897.5468,-190.4133 904.5468,-190.4132"/>
</g>
<!-- NAME40 -->
<g id="node57" class="node">
<title>NAME40</title>
<ellipse fill="none" stroke="#000000" cx="809.0467" cy="-90" rx="27" ry="18"/>
<text text-anchor="middle" x="809.0467" y="-86.3" font-family="Times,serif" font-size="14.00" fill="#000000">io</text>
</g>
<!-- 40&#45;&gt;NAME40 -->
<g id="edge56" class="edge">
<title>40&#45;&gt;NAME40</title>
<path fill="none" stroke="#000000" d="M809.0467,-143.8314C809.0467,-136.131 809.0467,-126.9743 809.0467,-118.4166"/>
<polygon fill="#000000" stroke="#000000" points="812.5468,-118.4132 809.0467,-108.4133 805.5468,-118.4133 812.5468,-118.4132"/>
</g>
<!-- NAME41 -->
<g id="node59" class="node">
<title>NAME41</title>
<ellipse fill="none" stroke="#000000" cx="899.0467" cy="-90" rx="28.6953" ry="18"/>
<text text-anchor="middle" x="899.0467" y="-86.3" font-family="Times,serif" font-size="14.00" fill="#000000">write</text>
</g>
<!-- 41&#45;&gt;NAME41 -->
<g id="edge58" class="edge">
<title>41&#45;&gt;NAME41</title>
<path fill="none" stroke="#000000" d="M900.542,-143.8314C900.3281,-136.131 900.0738,-126.9743 899.8361,-118.4166"/>
<polygon fill="#000000" stroke="#000000" points="903.3346,-118.3122 899.5582,-108.4133 896.3373,-118.5066 903.3346,-118.3122"/>
</g>
<!-- 43 -->
<g id="node61" class="node">
<title>43</title>
<ellipse fill="none" stroke="#000000" cx="983.0467" cy="-162" rx="27" ry="18"/>
<text text-anchor="middle" x="983.0467" y="-158.3" font-family="Times,serif" font-size="14.00" fill="#000000">var</text>
</g>
<!-- 42&#45;&gt;43 -->
<g id="edge60" class="edge">
<title>42&#45;&gt;43</title>
<path fill="none" stroke="#000000" d="M983.0467,-215.8314C983.0467,-208.131 983.0467,-198.9743 983.0467,-190.4166"/>
<polygon fill="#000000" stroke="#000000" points="986.5468,-190.4132 983.0467,-180.4133 979.5468,-190.4133 986.5468,-190.4132"/>
</g>
<!-- 44 -->
<g id="node62" class="node">
<title>44</title>
<ellipse fill="none" stroke="#000000" cx="983.0467" cy="-90" rx="37.0935" ry="18"/>
<text text-anchor="middle" x="983.0467" y="-86.3" font-family="Times,serif" font-size="14.00" fill="#000000">NAME</text>
</g>
<!-- 43&#45;&gt;44 -->
<g id="edge61" class="edge">
<title>43&#45;&gt;44</title>
<path fill="none" stroke="#000000" d="M983.0467,-143.8314C983.0467,-136.131 983.0467,-126.9743 983.0467,-118.4166"/>
<polygon fill="#000000" stroke="#000000" points="986.5468,-118.4132 983.0467,-108.4133 979.5468,-118.4133 986.5468,-118.4132"/>
</g>
<!-- NAME44 -->
<g id="node63" class="node">
<title>NAME44</title>
<ellipse fill="none" stroke="#000000" cx="983.0467" cy="-18" rx="27" ry="18"/>
<text text-anchor="middle" x="983.0467" y="-14.3" font-family="Times,serif" font-size="14.00" fill="#000000">i</text>
</g>
<!-- 44&#45;&gt;NAME44 -->
<g id="edge62" class="edge">
<title>44&#45;&gt;NAME44</title>
<path fill="none" stroke="#000000" d="M983.0467,-71.8314C983.0467,-64.131 983.0467,-54.9743 983.0467,-46.4166"/>
<polygon fill="#000000" stroke="#000000" points="986.5468,-46.4132 983.0467,-36.4133 979.5468,-46.4133 986.5468,-46.4132"/>
</g>
<!-- 46 -->
<g id="node65" class="node">
<title>46</title>
<ellipse fill="none" stroke="#000000" cx="1132.0467" cy="-234" rx="27" ry="18"/>
<text text-anchor="middle" x="1132.0467" y="-230.3" font-family="Times,serif" font-size="14.00" fill="#000000">var</text>
</g>
<!-- 45&#45;&gt;46 -->
<g id="edge64" class="edge">
<title>45&#45;&gt;46</title>
<path fill="none" stroke="#000000" d="M1132.0467,-287.8314C1132.0467,-280.131 1132.0467,-270.9743 1132.0467,-262.4166"/>
<polygon fill="#000000" stroke="#000000" points="1135.5468,-262.4132 1132.0467,-252.4133 1128.5468,-262.4133 1135.5468,-262.4132"/>
</g>
<!-- 49 -->
<g id="node70" class="node">
<title>49</title>
<ellipse fill="none" stroke="#000000" cx="1233.0467" cy="-234" rx="34.394" ry="18"/>
<text text-anchor="middle" x="1233.0467" y="-230.3" font-family="Times,serif" font-size="14.00" fill="#000000">explist</text>
</g>
<!-- 45&#45;&gt;49 -->
<g id="edge69" class="edge">
<title>45&#45;&gt;49</title>
<path fill="none" stroke="#000000" d="M1154.9652,-289.6621C1169.5992,-279.2299 1188.6908,-265.62 1204.3326,-254.4695"/>
<polygon fill="#000000" stroke="#000000" points="1206.5062,-257.2183 1212.6174,-248.5635 1202.4429,-251.5183 1206.5062,-257.2183"/>
</g>
<!-- 47 -->
<g id="node66" class="node">
<title>47</title>
<ellipse fill="none" stroke="#000000" cx="1065.0467" cy="-162" rx="37.0935" ry="18"/>
<text text-anchor="middle" x="1065.0467" y="-158.3" font-family="Times,serif" font-size="14.00" fill="#000000">NAME</text>
</g>
<!-- 46&#45;&gt;47 -->
<g id="edge65" class="edge">
<title>46&#45;&gt;47</title>
<path fill="none" stroke="#000000" d="M1117.5087,-218.3771C1108.7133,-208.9253 1097.3176,-196.6792 1087.3952,-186.0163"/>
<polygon fill="#000000" stroke="#000000" points="1089.8634,-183.5309 1080.4888,-178.5945 1084.7389,-188.2996 1089.8634,-183.5309"/>
</g>
<!-- 48 -->
<g id="node68" class="node">
<title>48</title>
<ellipse fill="none" stroke="#000000" cx="1157.0467" cy="-162" rx="37.0935" ry="18"/>
<text text-anchor="middle" x="1157.0467" y="-158.3" font-family="Times,serif" font-size="14.00" fill="#000000">NAME</text>
</g>
<!-- 46&#45;&gt;48 -->
<g id="edge67" class="edge">
<title>46&#45;&gt;48</title>
<path fill="none" stroke="#000000" d="M1138.2265,-216.2022C1141.021,-208.1541 1144.3874,-198.4588 1147.4958,-189.5067"/>
<polygon fill="#000000" stroke="#000000" points="1150.8776,-190.4374 1150.8514,-179.8425 1144.2648,-188.1412 1150.8776,-190.4374"/>
</g>
<!-- NAME47 -->
<g id="node67" class="node">
<title>NAME47</title>
<ellipse fill="none" stroke="#000000" cx="1065.0467" cy="-90" rx="27" ry="18"/>
<text text-anchor="middle" x="1065.0467" y="-86.3" font-family="Times,serif" font-size="14.00" fill="#000000">io</text>
</g>
<!-- 47&#45;&gt;NAME47 -->
<g id="edge66" class="edge">
<title>47&#45;&gt;NAME47</title>
<path fill="none" stroke="#000000" d="M1065.0467,-143.8314C1065.0467,-136.131 1065.0467,-126.9743 1065.0467,-118.4166"/>
<polygon fill="#000000" stroke="#000000" points="1068.5468,-118.4132 1065.0467,-108.4133 1061.5468,-118.4133 1068.5468,-118.4132"/>
</g>
<!-- NAME48 -->
<g id="node69" class="node">
<title>NAME48</title>
<ellipse fill="none" stroke="#000000" cx="1147.0467" cy="-90" rx="28.6953" ry="18"/>
<text text-anchor="middle" x="1147.0467" y="-86.3" font-family="Times,serif" font-size="14.00" fill="#000000">write</text>
</g>
<!-- 48&#45;&gt;NAME48 -->
<g id="edge68" class="edge">
<title>48&#45;&gt;NAME48</title>
<path fill="none" stroke="#000000" d="M1154.5233,-143.8314C1153.4538,-136.131 1152.182,-126.9743 1150.9935,-118.4166"/>
<polygon fill="#000000" stroke="#000000" points="1154.4466,-117.8367 1149.6041,-108.4133 1147.5132,-118.7997 1154.4466,-117.8367"/>
</g>
<!-- 50 -->
<g id="node71" class="node">
<title>50</title>
<ellipse fill="none" stroke="#000000" cx="1254.0467" cy="-162" rx="42.4939" ry="18"/>
<text text-anchor="middle" x="1254.0467" y="-158.3" font-family="Times,serif" font-size="14.00" fill="#000000">STRING</text>
</g>
<!-- 49&#45;&gt;50 -->
<g id="edge70" class="edge">
<title>49&#45;&gt;50</title>
<path fill="none" stroke="#000000" d="M1238.2377,-216.2022C1240.5675,-208.2146 1243.3704,-198.6045 1245.965,-189.7087"/>
<polygon fill="#000000" stroke="#000000" points="1249.3295,-190.6731 1248.7696,-180.0931 1242.6095,-188.7131 1249.3295,-190.6731"/>
</g>
<!-- STRING50 -->
<g id="node72" class="node">
<title>STRING50</title>
<ellipse fill="none" stroke="#000000" cx="1254.0467" cy="-90" rx="60.3893" ry="18"/>
<text text-anchor="middle" x="1254.0467" y="-86.3" font-family="Times,serif" font-size="14.00" fill="#000000"> is a factor of </text>
</g>
<!-- 50&#45;&gt;STRING50 -->
<g id="edge71" class="edge">
<title>50&#45;&gt;STRING50</title>
<path fill="none" stroke="#000000" d="M1254.0467,-143.8314C1254.0467,-136.131 1254.0467,-126.9743 1254.0467,-118.4166"/>
<polygon fill="#000000" stroke="#000000" points="1257.5468,-118.4132 1254.0467,-108.4133 1250.5468,-118.4133 1257.5468,-118.4132"/>
</g>
<!-- 52 -->
<g id="node74" class="node">
<title>52</title>
<ellipse fill="none" stroke="#000000" cx="1360.0467" cy="-234" rx="27" ry="18"/>
<text text-anchor="middle" x="1360.0467" y="-230.3" font-family="Times,serif" font-size="14.00" fill="#000000">var</text>
</g>
<!-- 51&#45;&gt;52 -->
<g id="edge73" class="edge">
<title>51&#45;&gt;52</title>
<path fill="none" stroke="#000000" d="M1360.0467,-287.8314C1360.0467,-280.131 1360.0467,-270.9743 1360.0467,-262.4166"/>
<polygon fill="#000000" stroke="#000000" points="1363.5468,-262.4132 1360.0467,-252.4133 1356.5468,-262.4133 1363.5468,-262.4132"/>
</g>
<!-- 54 -->
<g id="node77" class="node">
<title>54</title>
<ellipse fill="none" stroke="#000000" cx="1440.0467" cy="-234" rx="34.394" ry="18"/>
<text text-anchor="middle" x="1440.0467" y="-230.3" font-family="Times,serif" font-size="14.00" fill="#000000">explist</text>
</g>
<!-- 51&#45;&gt;54 -->
<g id="edge76" class="edge">
<title>51&#45;&gt;54</title>
<path fill="none" stroke="#000000" d="M1379.0056,-288.937C1389.7425,-279.2738 1403.307,-267.0657 1414.9208,-256.6133"/>
<polygon fill="#000000" stroke="#000000" points="1417.4992,-259.0016 1422.5908,-249.7103 1412.8164,-253.7985 1417.4992,-259.0016"/>
</g>
<!-- 53 -->
<g id="node75" class="node">
<title>53</title>
<ellipse fill="none" stroke="#000000" cx="1360.0467" cy="-162" rx="37.0935" ry="18"/>
<text text-anchor="middle" x="1360.0467" y="-158.3" font-family="Times,serif" font-size="14.00" fill="#000000">NAME</text>
</g>
<!-- 52&#45;&gt;53 -->
<g id="edge74" class="edge">
<title>52&#45;&gt;53</title>
<path fill="none" stroke="#000000" d="M1360.0467,-215.8314C1360.0467,-208.131 1360.0467,-198.9743 1360.0467,-190.4166"/>
<polygon fill="#000000" stroke="#000000" points="1363.5468,-190.4132 1360.0467,-180.4133 1356.5468,-190.4133 1363.5468,-190.4132"/>
</g>
<!-- NAME53 -->
<g id="node76" class="node">
<title>NAME53</title>
<ellipse fill="none" stroke="#000000" cx="1360.0467" cy="-90" rx="27.0966" ry="18"/>
<text text-anchor="middle" x="1360.0467" y="-86.3" font-family="Times,serif" font-size="14.00" fill="#000000">print</text>
</g>
<!-- 53&#45;&gt;NAME53 -->
<g id="edge75" class="edge">
<title>53&#45;&gt;NAME53</title>
<path fill="none" stroke="#000000" d="M1360.0467,-143.8314C1360.0467,-136.131 1360.0467,-126.9743 1360.0467,-118.4166"/>
<polygon fill="#000000" stroke="#000000" points="1363.5468,-118.4132 1360.0467,-108.4133 1356.5468,-118.4133 1363.5468,-118.4132"/>
</g>
<!-- 55 -->
<g id="node78" class="node">
<title>55</title>
<ellipse fill="none" stroke="#000000" cx="1442.0467" cy="-162" rx="27" ry="18"/>
<text text-anchor="middle" x="1442.0467" y="-158.3" font-family="Times,serif" font-size="14.00" fill="#000000">var</text>
</g>
<!-- 54&#45;&gt;55 -->
<g id="edge77" class="edge">
<title>54&#45;&gt;55</title>
<path fill="none" stroke="#000000" d="M1440.5514,-215.8314C1440.7653,-208.131 1441.0196,-198.9743 1441.2574,-190.4166"/>
<polygon fill="#000000" stroke="#000000" points="1444.7561,-190.5066 1441.5352,-180.4133 1437.7588,-190.3122 1444.7561,-190.5066"/>
</g>
<!-- 56 -->
<g id="node79" class="node">
<title>56</title>
<ellipse fill="none" stroke="#000000" cx="1442.0467" cy="-90" rx="37.0935" ry="18"/>
<text text-anchor="middle" x="1442.0467" y="-86.3" font-family="Times,serif" font-size="14.00" fill="#000000">NAME</text>
</g>
<!-- 55&#45;&gt;56 -->
<g id="edge78" class="edge">
<title>55&#45;&gt;56</title>
<path fill="none" stroke="#000000" d="M1442.0467,-143.8314C1442.0467,-136.131 1442.0467,-126.9743 1442.0467,-118.4166"/>
<polygon fill="#000000" stroke="#000000" points="1445.5468,-118.4132 1442.0467,-108.4133 1438.5468,-118.4133 1445.5468,-118.4132"/>
</g>
<!-- NAME56 -->
<g id="node80" class="node">
<title>NAME56</title>
<ellipse fill="none" stroke="#000000" cx="1442.0467" cy="-18" rx="27" ry="18"/>
<text text-anchor="middle" x="1442.0467" y="-14.3" font-family="Times,serif" font-size="14.00" fill="#000000">n</text>
</g>
<!-- 56&#45;&gt;NAME56 -->
<g id="edge79" class="edge">
<title>56&#45;&gt;NAME56</title>
<path fill="none" stroke="#000000" d="M1442.0467,-71.8314C1442.0467,-64.131 1442.0467,-54.9743 1442.0467,-46.4166"/>
<polygon fill="#000000" stroke="#000000" points="1445.5468,-46.4132 1442.0467,-36.4133 1438.5468,-46.4133 1445.5468,-46.4132"/>
</g>
</g>
</svg>
