<?xml version="1.0" encoding="UTF-8" standalone="no"?>
<!DOCTYPE svg PUBLIC "-//W3C//DTD SVG 1.1//EN"
 "http://www.w3.org/Graphics/SVG/1.1/DTD/svg11.dtd">
<!-- Generated by graphviz version 2.40.1 (20161225.0304)
 -->
<!-- Title: %3 Pages: 1 -->
<svg width="1047pt" height="764pt"
 viewBox="0.00 0.00 1047.39 764.00" xmlns="http://www.w3.org/2000/svg" xmlns:xlink="http://www.w3.org/1999/xlink">
<g id="graph0" class="graph" transform="scale(1 1) rotate(0) translate(4 760)">
<title>%3</title>
<polygon fill="#ffffff" stroke="transparent" points="-4,4 -4,-760 1043.3922,-760 1043.3922,4 -4,4"/>
<!-- 1 -->
<g id="node1" class="node">
<title>1</title>
<ellipse fill="none" stroke="#000000" cx="795.1961" cy="-738" rx="32.4942" ry="18"/>
<text text-anchor="middle" x="795.1961" y="-734.3" font-family="Times,serif" font-size="14.00" fill="#000000">chunk</text>
</g>
<!-- 2 -->
<g id="node2" class="node">
<title>2</title>
<ellipse fill="none" stroke="#000000" cx="795.1961" cy="-666" rx="52.7911" ry="18"/>
<text text-anchor="middle" x="795.1961" y="-662.3" font-family="Times,serif" font-size="14.00" fill="#000000">functioncall</text>
</g>
<!-- 1&#45;&gt;2 -->
<g id="edge1" class="edge">
<title>1&#45;&gt;2</title>
<path fill="none" stroke="#000000" d="M795.1961,-719.8314C795.1961,-712.131 795.1961,-702.9743 795.1961,-694.4166"/>
<polygon fill="#000000" stroke="#000000" points="798.6962,-694.4132 795.1961,-684.4133 791.6962,-694.4133 798.6962,-694.4132"/>
</g>
<!-- 3 -->
<g id="node3" class="node">
<title>3</title>
<ellipse fill="none" stroke="#000000" cx="756.1961" cy="-594" rx="27" ry="18"/>
<text text-anchor="middle" x="756.1961" y="-590.3" font-family="Times,serif" font-size="14.00" fill="#000000">var</text>
</g>
<!-- 2&#45;&gt;3 -->
<g id="edge2" class="edge">
<title>2&#45;&gt;3</title>
<path fill="none" stroke="#000000" d="M785.5556,-648.2022C780.9541,-639.7071 775.3585,-629.3767 770.2915,-620.0223"/>
<polygon fill="#000000" stroke="#000000" points="773.2975,-618.2231 765.4571,-611.0972 767.1424,-621.5572 773.2975,-618.2231"/>
</g>
<!-- 5 -->
<g id="node6" class="node">
<title>5</title>
<ellipse fill="none" stroke="#000000" cx="836.1961" cy="-594" rx="34.394" ry="18"/>
<text text-anchor="middle" x="836.1961" y="-590.3" font-family="Times,serif" font-size="14.00" fill="#000000">explist</text>
</g>
<!-- 2&#45;&gt;5 -->
<g id="edge5" class="edge">
<title>2&#45;&gt;5</title>
<path fill="none" stroke="#000000" d="M805.3309,-648.2022C810.1329,-639.7695 815.9645,-629.5285 821.2602,-620.2288"/>
<polygon fill="#000000" stroke="#000000" points="824.4123,-621.7664 826.3193,-611.3446 818.3294,-618.3025 824.4123,-621.7664"/>
</g>
<!-- 4 -->
<g id="node4" class="node">
<title>4</title>
<ellipse fill="none" stroke="#000000" cx="755.1961" cy="-522" rx="37.0935" ry="18"/>
<text text-anchor="middle" x="755.1961" y="-518.3" font-family="Times,serif" font-size="14.00" fill="#000000">NAME</text>
</g>
<!-- 3&#45;&gt;4 -->
<g id="edge3" class="edge">
<title>3&#45;&gt;4</title>
<path fill="none" stroke="#000000" d="M755.9437,-575.8314C755.8368,-568.131 755.7096,-558.9743 755.5908,-550.4166"/>
<polygon fill="#000000" stroke="#000000" points="759.0905,-550.3637 755.4518,-540.4133 752.0911,-550.4609 759.0905,-550.3637"/>
</g>
<!-- NAME4 -->
<g id="node5" class="node">
<title>NAME4</title>
<ellipse fill="none" stroke="#000000" cx="722.1961" cy="-450" rx="27.0966" ry="18"/>
<text text-anchor="middle" x="722.1961" y="-446.3" font-family="Times,serif" font-size="14.00" fill="#000000">print</text>
</g>
<!-- 4&#45;&gt;NAME4 -->
<g id="edge4" class="edge">
<title>4&#45;&gt;NAME4</title>
<path fill="none" stroke="#000000" d="M747.0388,-504.2022C743.214,-495.8574 738.5777,-485.7417 734.3509,-476.5197"/>
<polygon fill="#000000" stroke="#000000" points="737.494,-474.9769 730.1457,-467.3446 731.1306,-477.8936 737.494,-474.9769"/>
</g>
<!-- 6 -->
<g id="node7" class="node">
<title>6</title>
<ellipse fill="none" stroke="#000000" cx="853.1961" cy="-522" rx="27" ry="18"/>
<text text-anchor="middle" x="853.1961" y="-518.3" font-family="Times,serif" font-size="14.00" fill="#000000">exp</text>
</g>
<!-- 5&#45;&gt;6 -->
<g id="edge6" class="edge">
<title>5&#45;&gt;6</title>
<path fill="none" stroke="#000000" d="M840.4859,-575.8314C842.3523,-567.9266 844.581,-558.4872 846.6472,-549.7365"/>
<polygon fill="#000000" stroke="#000000" points="850.0749,-550.4501 848.9665,-539.9134 843.2622,-548.8415 850.0749,-550.4501"/>
</g>
<!-- 7 -->
<g id="node8" class="node">
<title>7</title>
<ellipse fill="none" stroke="#000000" cx="794.1961" cy="-450" rx="27" ry="18"/>
<text text-anchor="middle" x="794.1961" y="-446.3" font-family="Times,serif" font-size="14.00" fill="#000000">exp</text>
</g>
<!-- 6&#45;&gt;7 -->
<g id="edge7" class="edge">
<title>6&#45;&gt;7</title>
<path fill="none" stroke="#000000" d="M840.1021,-506.0209C832.3872,-496.6061 822.4772,-484.5126 813.8406,-473.973"/>
<polygon fill="#000000" stroke="#000000" points="816.2989,-471.4509 807.2535,-465.9345 810.8846,-475.8877 816.2989,-471.4509"/>
</g>
<!-- 29 -->
<g id="node45" class="node">
<title>29</title>
<ellipse fill="none" stroke="#000000" cx="870.1961" cy="-450" rx="30.5947" ry="18"/>
<text text-anchor="middle" x="870.1961" y="-446.3" font-family="Times,serif" font-size="14.00" fill="#000000">binop</text>
</g>
<!-- 6&#45;&gt;29 -->
<g id="edge44" class="edge">
<title>6&#45;&gt;29</title>
<path fill="none" stroke="#000000" d="M857.3983,-504.2022C859.2782,-496.2406 861.5386,-486.6671 863.6332,-477.7957"/>
<polygon fill="#000000" stroke="#000000" points="867.0916,-478.3792 865.9833,-467.8425 860.2789,-476.7706 867.0916,-478.3792"/>
</g>
<!-- 30 -->
<g id="node47" class="node">
<title>30</title>
<ellipse fill="none" stroke="#000000" cx="963.1961" cy="-450" rx="44.393" ry="18"/>
<text text-anchor="middle" x="963.1961" y="-446.3" font-family="Times,serif" font-size="14.00" fill="#000000">num_exp</text>
</g>
<!-- 6&#45;&gt;30 -->
<g id="edge46" class="edge">
<title>6&#45;&gt;30</title>
<path fill="none" stroke="#000000" d="M872.6087,-509.2936C888.8684,-498.6509 912.4001,-483.2483 931.4045,-470.809"/>
<polygon fill="#000000" stroke="#000000" points="933.3251,-473.735 939.7754,-465.3299 929.4915,-467.8781 933.3251,-473.735"/>
</g>
<!-- 8 -->
<g id="node9" class="node">
<title>8</title>
<ellipse fill="none" stroke="#000000" cx="550.1961" cy="-378" rx="27" ry="18"/>
<text text-anchor="middle" x="550.1961" y="-374.3" font-family="Times,serif" font-size="14.00" fill="#000000">exp</text>
</g>
<!-- 7&#45;&gt;8 -->
<g id="edge8" class="edge">
<title>7&#45;&gt;8</title>
<path fill="none" stroke="#000000" d="M773.2056,-438.5834C768.3614,-436.2091 763.1685,-433.865 758.1961,-432 699.5867,-410.0177 628.457,-393.6542 586.3937,-384.9869"/>
<polygon fill="#000000" stroke="#000000" points="586.8474,-381.5077 576.3512,-382.9504 585.4561,-388.3681 586.8474,-381.5077"/>
</g>
<!-- 24 -->
<g id="node36" class="node">
<title>24</title>
<ellipse fill="none" stroke="#000000" cx="726.1961" cy="-378" rx="30.5947" ry="18"/>
<text text-anchor="middle" x="726.1961" y="-374.3" font-family="Times,serif" font-size="14.00" fill="#000000">binop</text>
</g>
<!-- 7&#45;&gt;24 -->
<g id="edge35" class="edge">
<title>7&#45;&gt;24</title>
<path fill="none" stroke="#000000" d="M779.775,-434.7307C770.5256,-424.9372 758.3437,-412.0387 747.933,-401.0156"/>
<polygon fill="#000000" stroke="#000000" points="750.4773,-398.612 741.0664,-393.7451 745.3881,-403.4184 750.4773,-398.612"/>
</g>
<!-- 25 -->
<g id="node38" class="node">
<title>25</title>
<ellipse fill="none" stroke="#000000" cx="809.1961" cy="-378" rx="27" ry="18"/>
<text text-anchor="middle" x="809.1961" y="-374.3" font-family="Times,serif" font-size="14.00" fill="#000000">exp</text>
</g>
<!-- 7&#45;&gt;25 -->
<g id="edge37" class="edge">
<title>7&#45;&gt;25</title>
<path fill="none" stroke="#000000" d="M797.9812,-431.8314C799.628,-423.9266 801.5946,-414.4872 803.4176,-405.7365"/>
<polygon fill="#000000" stroke="#000000" points="806.8509,-406.4171 805.4641,-395.9134 799.9981,-404.9894 806.8509,-406.4171"/>
</g>
<!-- 9 -->
<g id="node10" class="node">
<title>9</title>
<ellipse fill="none" stroke="#000000" cx="321.1961" cy="-306" rx="27" ry="18"/>
<text text-anchor="middle" x="321.1961" y="-302.3" font-family="Times,serif" font-size="14.00" fill="#000000">exp</text>
</g>
<!-- 8&#45;&gt;9 -->
<g id="edge9" class="edge">
<title>8&#45;&gt;9</title>
<path fill="none" stroke="#000000" d="M525.6891,-370.2947C484.7335,-357.4179 402.2801,-331.4937 355.5516,-316.8017"/>
<polygon fill="#000000" stroke="#000000" points="356.4624,-313.4192 345.873,-313.7587 354.3628,-320.097 356.4624,-313.4192"/>
</g>
<!-- 19 -->
<g id="node27" class="node">
<title>19</title>
<ellipse fill="none" stroke="#000000" cx="509.1961" cy="-306" rx="30.5947" ry="18"/>
<text text-anchor="middle" x="509.1961" y="-302.3" font-family="Times,serif" font-size="14.00" fill="#000000">binop</text>
</g>
<!-- 8&#45;&gt;19 -->
<g id="edge26" class="edge">
<title>8&#45;&gt;19</title>
<path fill="none" stroke="#000000" d="M540.4797,-360.937C535.5986,-352.3654 529.5773,-341.7914 524.1249,-332.2165"/>
<polygon fill="#000000" stroke="#000000" points="527.1175,-330.3986 519.1276,-323.4407 521.0346,-333.8625 527.1175,-330.3986"/>
</g>
<!-- 20 -->
<g id="node29" class="node">
<title>20</title>
<ellipse fill="none" stroke="#000000" cx="591.1961" cy="-306" rx="27" ry="18"/>
<text text-anchor="middle" x="591.1961" y="-302.3" font-family="Times,serif" font-size="14.00" fill="#000000">exp</text>
</g>
<!-- 8&#45;&gt;20 -->
<g id="edge28" class="edge">
<title>8&#45;&gt;20</title>
<path fill="none" stroke="#000000" d="M559.9125,-360.937C564.8654,-352.2393 570.9922,-341.4799 576.5074,-331.7948"/>
<polygon fill="#000000" stroke="#000000" points="579.6424,-333.3623 581.5494,-322.9405 573.5595,-329.8984 579.6424,-333.3623"/>
</g>
<!-- 10 -->
<g id="node11" class="node">
<title>10</title>
<ellipse fill="none" stroke="#000000" cx="173.1961" cy="-234" rx="27" ry="18"/>
<text text-anchor="middle" x="173.1961" y="-230.3" font-family="Times,serif" font-size="14.00" fill="#000000">exp</text>
</g>
<!-- 9&#45;&gt;10 -->
<g id="edge10" class="edge">
<title>9&#45;&gt;10</title>
<path fill="none" stroke="#000000" d="M299.3582,-295.3762C274.2182,-283.1459 232.736,-262.9654 204.2452,-249.105"/>
<polygon fill="#000000" stroke="#000000" points="205.6471,-245.8948 195.1236,-244.6674 202.5848,-252.1895 205.6471,-245.8948"/>
</g>
<!-- 17 -->
<g id="node23" class="node">
<title>17</title>
<ellipse fill="none" stroke="#000000" cx="274.1961" cy="-234" rx="30.5947" ry="18"/>
<text text-anchor="middle" x="274.1961" y="-230.3" font-family="Times,serif" font-size="14.00" fill="#000000">binop</text>
</g>
<!-- 9&#45;&gt;17 -->
<g id="edge22" class="edge">
<title>9&#45;&gt;17</title>
<path fill="none" stroke="#000000" d="M310.2952,-289.3008C304.5649,-280.5224 297.4156,-269.5703 290.9946,-259.7339"/>
<polygon fill="#000000" stroke="#000000" points="293.7613,-257.5693 285.3642,-251.1086 287.8997,-261.3956 293.7613,-257.5693"/>
</g>
<!-- 18 -->
<g id="node25" class="node">
<title>18</title>
<ellipse fill="none" stroke="#000000" cx="367.1961" cy="-234" rx="44.393" ry="18"/>
<text text-anchor="middle" x="367.1961" y="-230.3" font-family="Times,serif" font-size="14.00" fill="#000000">num_exp</text>
</g>
<!-- 9&#45;&gt;18 -->
<g id="edge24" class="edge">
<title>9&#45;&gt;18</title>
<path fill="none" stroke="#000000" d="M331.865,-289.3008C337.3921,-280.6496 344.2681,-269.8873 350.4813,-260.1623"/>
<polygon fill="#000000" stroke="#000000" points="353.5087,-261.9245 355.9432,-251.6132 347.6098,-258.1558 353.5087,-261.9245"/>
</g>
<!-- 11 -->
<g id="node12" class="node">
<title>11</title>
<ellipse fill="none" stroke="#000000" cx="44.1961" cy="-162" rx="44.393" ry="18"/>
<text text-anchor="middle" x="44.1961" y="-158.3" font-family="Times,serif" font-size="14.00" fill="#000000">num_exp</text>
</g>
<!-- 10&#45;&gt;11 -->
<g id="edge11" class="edge">
<title>10&#45;&gt;11</title>
<path fill="none" stroke="#000000" d="M152.47,-222.432C132.853,-211.4829 103.0074,-194.8249 79.6158,-181.7691"/>
<polygon fill="#000000" stroke="#000000" points="81.1185,-178.5996 70.6807,-176.7821 77.7069,-184.712 81.1185,-178.5996"/>
</g>
<!-- 12 -->
<g id="node14" class="node">
<title>12</title>
<ellipse fill="none" stroke="#000000" cx="137.1961" cy="-162" rx="30.5947" ry="18"/>
<text text-anchor="middle" x="137.1961" y="-158.3" font-family="Times,serif" font-size="14.00" fill="#000000">binop</text>
</g>
<!-- 10&#45;&gt;12 -->
<g id="edge13" class="edge">
<title>10&#45;&gt;12</title>
<path fill="none" stroke="#000000" d="M164.4815,-216.5708C160.2364,-208.0807 155.0425,-197.6929 150.3298,-188.2674"/>
<polygon fill="#000000" stroke="#000000" points="153.4331,-186.6477 145.8304,-179.2687 147.1721,-189.7782 153.4331,-186.6477"/>
</g>
<!-- 13 -->
<g id="node16" class="node">
<title>13</title>
<ellipse fill="none" stroke="#000000" cx="213.1961" cy="-162" rx="27" ry="18"/>
<text text-anchor="middle" x="213.1961" y="-158.3" font-family="Times,serif" font-size="14.00" fill="#000000">exp</text>
</g>
<!-- 10&#45;&gt;13 -->
<g id="edge15" class="edge">
<title>10&#45;&gt;13</title>
<path fill="none" stroke="#000000" d="M182.6755,-216.937C187.5076,-208.2393 193.485,-197.4799 198.8656,-187.7948"/>
<polygon fill="#000000" stroke="#000000" points="201.9878,-189.3819 203.7847,-178.9405 195.8686,-185.9823 201.9878,-189.3819"/>
</g>
<!-- num_exp11 -->
<g id="node13" class="node">
<title>num_exp11</title>
<ellipse fill="none" stroke="#000000" cx="44.1961" cy="-90" rx="27" ry="18"/>
<text text-anchor="middle" x="44.1961" y="-86.3" font-family="Times,serif" font-size="14.00" fill="#000000">2</text>
</g>
<!-- 11&#45;&gt;num_exp11 -->
<g id="edge12" class="edge">
<title>11&#45;&gt;num_exp11</title>
<path fill="none" stroke="#000000" d="M44.1961,-143.8314C44.1961,-136.131 44.1961,-126.9743 44.1961,-118.4166"/>
<polygon fill="#000000" stroke="#000000" points="47.6962,-118.4132 44.1961,-108.4133 40.6962,-118.4133 47.6962,-118.4132"/>
</g>
<!-- binop12 -->
<g id="node15" class="node">
<title>binop12</title>
<ellipse fill="none" stroke="#000000" cx="120.1961" cy="-90" rx="27" ry="18"/>
<text text-anchor="middle" x="120.1961" y="-86.3" font-family="Times,serif" font-size="14.00" fill="#000000">^</text>
</g>
<!-- 12&#45;&gt;binop12 -->
<g id="edge14" class="edge">
<title>12&#45;&gt;binop12</title>
<path fill="none" stroke="#000000" d="M132.9063,-143.8314C131.0399,-135.9266 128.8111,-126.4872 126.745,-117.7365"/>
<polygon fill="#000000" stroke="#000000" points="130.13,-116.8415 124.4256,-107.9134 123.3173,-118.4501 130.13,-116.8415"/>
</g>
<!-- 14 -->
<g id="node17" class="node">
<title>14</title>
<ellipse fill="none" stroke="#000000" cx="209.1961" cy="-90" rx="44.393" ry="18"/>
<text text-anchor="middle" x="209.1961" y="-86.3" font-family="Times,serif" font-size="14.00" fill="#000000">num_exp</text>
</g>
<!-- 13&#45;&gt;14 -->
<g id="edge16" class="edge">
<title>13&#45;&gt;14</title>
<path fill="none" stroke="#000000" d="M212.1867,-143.8314C211.7589,-136.131 211.2502,-126.9743 210.7748,-118.4166"/>
<polygon fill="#000000" stroke="#000000" points="214.2684,-118.2037 210.219,-108.4133 207.2792,-118.592 214.2684,-118.2037"/>
</g>
<!-- 15 -->
<g id="node19" class="node">
<title>15</title>
<ellipse fill="none" stroke="#000000" cx="302.1961" cy="-90" rx="30.5947" ry="18"/>
<text text-anchor="middle" x="302.1961" y="-86.3" font-family="Times,serif" font-size="14.00" fill="#000000">binop</text>
</g>
<!-- 13&#45;&gt;15 -->
<g id="edge18" class="edge">
<title>13&#45;&gt;15</title>
<path fill="none" stroke="#000000" d="M230.7796,-147.7751C243.6533,-137.3605 261.3411,-123.0512 275.8928,-111.2791"/>
<polygon fill="#000000" stroke="#000000" points="278.4649,-113.7002 284.038,-104.6896 274.0622,-108.2581 278.4649,-113.7002"/>
</g>
<!-- 16 -->
<g id="node21" class="node">
<title>16</title>
<ellipse fill="none" stroke="#000000" cx="395.1961" cy="-90" rx="44.393" ry="18"/>
<text text-anchor="middle" x="395.1961" y="-86.3" font-family="Times,serif" font-size="14.00" fill="#000000">num_exp</text>
</g>
<!-- 13&#45;&gt;16 -->
<g id="edge20" class="edge">
<title>13&#45;&gt;16</title>
<path fill="none" stroke="#000000" d="M234.7169,-150.7604C239.4419,-148.4277 244.4516,-146.0562 249.1961,-144 282.9478,-129.3724 322.0822,-115.0339 351.3339,-104.8123"/>
<polygon fill="#000000" stroke="#000000" points="352.5531,-108.0941 360.8532,-101.5092 350.2584,-101.4809 352.5531,-108.0941"/>
</g>
<!-- num_exp14 -->
<g id="node18" class="node">
<title>num_exp14</title>
<ellipse fill="none" stroke="#000000" cx="209.1961" cy="-18" rx="27" ry="18"/>
<text text-anchor="middle" x="209.1961" y="-14.3" font-family="Times,serif" font-size="14.00" fill="#000000">4</text>
</g>
<!-- 14&#45;&gt;num_exp14 -->
<g id="edge17" class="edge">
<title>14&#45;&gt;num_exp14</title>
<path fill="none" stroke="#000000" d="M209.1961,-71.8314C209.1961,-64.131 209.1961,-54.9743 209.1961,-46.4166"/>
<polygon fill="#000000" stroke="#000000" points="212.6962,-46.4132 209.1961,-36.4133 205.6962,-46.4133 212.6962,-46.4132"/>
</g>
<!-- binop15 -->
<g id="node20" class="node">
<title>binop15</title>
<ellipse fill="none" stroke="#000000" cx="302.1961" cy="-18" rx="27" ry="18"/>
<text text-anchor="middle" x="302.1961" y="-14.3" font-family="Times,serif" font-size="14.00" fill="#000000">*</text>
</g>
<!-- 15&#45;&gt;binop15 -->
<g id="edge19" class="edge">
<title>15&#45;&gt;binop15</title>
<path fill="none" stroke="#000000" d="M302.1961,-71.8314C302.1961,-64.131 302.1961,-54.9743 302.1961,-46.4166"/>
<polygon fill="#000000" stroke="#000000" points="305.6962,-46.4132 302.1961,-36.4133 298.6962,-46.4133 305.6962,-46.4132"/>
</g>
<!-- num_exp16 -->
<g id="node22" class="node">
<title>num_exp16</title>
<ellipse fill="none" stroke="#000000" cx="395.1961" cy="-18" rx="27" ry="18"/>
<text text-anchor="middle" x="395.1961" y="-14.3" font-family="Times,serif" font-size="14.00" fill="#000000">2</text>
</g>
<!-- 16&#45;&gt;num_exp16 -->
<g id="edge21" class="edge">
<title>16&#45;&gt;num_exp16</title>
<path fill="none" stroke="#000000" d="M395.1961,-71.8314C395.1961,-64.131 395.1961,-54.9743 395.1961,-46.4166"/>
<polygon fill="#000000" stroke="#000000" points="398.6962,-46.4132 395.1961,-36.4133 391.6962,-46.4133 398.6962,-46.4132"/>
</g>
<!-- binop17 -->
<g id="node24" class="node">
<title>binop17</title>
<ellipse fill="none" stroke="#000000" cx="285.1961" cy="-162" rx="27" ry="18"/>
<text text-anchor="middle" x="285.1961" y="-158.3" font-family="Times,serif" font-size="14.00" fill="#000000">+</text>
</g>
<!-- 17&#45;&gt;binop17 -->
<g id="edge23" class="edge">
<title>17&#45;&gt;binop17</title>
<path fill="none" stroke="#000000" d="M276.9718,-215.8314C278.1664,-208.0125 279.5903,-198.6923 280.9149,-190.0221"/>
<polygon fill="#000000" stroke="#000000" points="284.4088,-190.3273 282.4593,-179.9134 277.4891,-189.2701 284.4088,-190.3273"/>
</g>
<!-- num_exp18 -->
<g id="node26" class="node">
<title>num_exp18</title>
<ellipse fill="none" stroke="#000000" cx="367.1961" cy="-162" rx="27" ry="18"/>
<text text-anchor="middle" x="367.1961" y="-158.3" font-family="Times,serif" font-size="14.00" fill="#000000">10</text>
</g>
<!-- 18&#45;&gt;num_exp18 -->
<g id="edge25" class="edge">
<title>18&#45;&gt;num_exp18</title>
<path fill="none" stroke="#000000" d="M367.1961,-215.8314C367.1961,-208.131 367.1961,-198.9743 367.1961,-190.4166"/>
<polygon fill="#000000" stroke="#000000" points="370.6962,-190.4132 367.1961,-180.4133 363.6962,-190.4133 370.6962,-190.4132"/>
</g>
<!-- binop19 -->
<g id="node28" class="node">
<title>binop19</title>
<ellipse fill="none" stroke="#000000" cx="456.1961" cy="-234" rx="27" ry="18"/>
<text text-anchor="middle" x="456.1961" y="-230.3" font-family="Times,serif" font-size="14.00" fill="#000000">&#45;</text>
</g>
<!-- 19&#45;&gt;binop19 -->
<g id="edge27" class="edge">
<title>19&#45;&gt;binop19</title>
<path fill="none" stroke="#000000" d="M496.9036,-289.3008C490.2143,-280.2135 481.8103,-268.7966 474.3777,-258.6996"/>
<polygon fill="#000000" stroke="#000000" points="477.1688,-256.5872 468.4219,-250.6087 471.5314,-260.7369 477.1688,-256.5872"/>
</g>
<!-- 21 -->
<g id="node30" class="node">
<title>21</title>
<ellipse fill="none" stroke="#000000" cx="545.1961" cy="-234" rx="44.393" ry="18"/>
<text text-anchor="middle" x="545.1961" y="-230.3" font-family="Times,serif" font-size="14.00" fill="#000000">num_exp</text>
</g>
<!-- 20&#45;&gt;21 -->
<g id="edge29" class="edge">
<title>20&#45;&gt;21</title>
<path fill="none" stroke="#000000" d="M580.5271,-289.3008C575,-280.6496 568.1241,-269.8873 561.9109,-260.1623"/>
<polygon fill="#000000" stroke="#000000" points="564.7823,-258.1558 556.4489,-251.6132 558.8834,-261.9245 564.7823,-258.1558"/>
</g>
<!-- 22 -->
<g id="node32" class="node">
<title>22</title>
<ellipse fill="none" stroke="#000000" cx="638.1961" cy="-234" rx="30.5947" ry="18"/>
<text text-anchor="middle" x="638.1961" y="-230.3" font-family="Times,serif" font-size="14.00" fill="#000000">binop</text>
</g>
<!-- 20&#45;&gt;22 -->
<g id="edge31" class="edge">
<title>20&#45;&gt;22</title>
<path fill="none" stroke="#000000" d="M602.097,-289.3008C607.8273,-280.5224 614.9766,-269.5703 621.3975,-259.7339"/>
<polygon fill="#000000" stroke="#000000" points="624.4925,-261.3956 627.0279,-251.1086 618.6308,-257.5693 624.4925,-261.3956"/>
</g>
<!-- 23 -->
<g id="node34" class="node">
<title>23</title>
<ellipse fill="none" stroke="#000000" cx="731.1961" cy="-234" rx="44.393" ry="18"/>
<text text-anchor="middle" x="731.1961" y="-230.3" font-family="Times,serif" font-size="14.00" fill="#000000">num_exp</text>
</g>
<!-- 20&#45;&gt;23 -->
<g id="edge33" class="edge">
<title>20&#45;&gt;23</title>
<path fill="none" stroke="#000000" d="M612.7643,-294.9078C634.4875,-283.7358 668.4165,-266.2866 694.4007,-252.9233"/>
<polygon fill="#000000" stroke="#000000" points="696.2849,-255.8901 703.5771,-248.2041 693.0834,-249.6651 696.2849,-255.8901"/>
</g>
<!-- num_exp21 -->
<g id="node31" class="node">
<title>num_exp21</title>
<ellipse fill="none" stroke="#000000" cx="545.1961" cy="-162" rx="27" ry="18"/>
<text text-anchor="middle" x="545.1961" y="-158.3" font-family="Times,serif" font-size="14.00" fill="#000000">2</text>
</g>
<!-- 21&#45;&gt;num_exp21 -->
<g id="edge30" class="edge">
<title>21&#45;&gt;num_exp21</title>
<path fill="none" stroke="#000000" d="M545.1961,-215.8314C545.1961,-208.131 545.1961,-198.9743 545.1961,-190.4166"/>
<polygon fill="#000000" stroke="#000000" points="548.6962,-190.4132 545.1961,-180.4133 541.6962,-190.4133 548.6962,-190.4132"/>
</g>
<!-- binop22 -->
<g id="node33" class="node">
<title>binop22</title>
<ellipse fill="none" stroke="#000000" cx="638.1961" cy="-162" rx="27" ry="18"/>
<text text-anchor="middle" x="638.1961" y="-158.3" font-family="Times,serif" font-size="14.00" fill="#000000">*</text>
</g>
<!-- 22&#45;&gt;binop22 -->
<g id="edge32" class="edge">
<title>22&#45;&gt;binop22</title>
<path fill="none" stroke="#000000" d="M638.1961,-215.8314C638.1961,-208.131 638.1961,-198.9743 638.1961,-190.4166"/>
<polygon fill="#000000" stroke="#000000" points="641.6962,-190.4132 638.1961,-180.4133 634.6962,-190.4133 641.6962,-190.4132"/>
</g>
<!-- num_exp23 -->
<g id="node35" class="node">
<title>num_exp23</title>
<ellipse fill="none" stroke="#000000" cx="731.1961" cy="-162" rx="27" ry="18"/>
<text text-anchor="middle" x="731.1961" y="-158.3" font-family="Times,serif" font-size="14.00" fill="#000000">6</text>
</g>
<!-- 23&#45;&gt;num_exp23 -->
<g id="edge34" class="edge">
<title>23&#45;&gt;num_exp23</title>
<path fill="none" stroke="#000000" d="M731.1961,-215.8314C731.1961,-208.131 731.1961,-198.9743 731.1961,-190.4166"/>
<polygon fill="#000000" stroke="#000000" points="734.6962,-190.4132 731.1961,-180.4133 727.6962,-190.4133 734.6962,-190.4132"/>
</g>
<!-- binop24 -->
<g id="node37" class="node">
<title>binop24</title>
<ellipse fill="none" stroke="#000000" cx="720.1961" cy="-306" rx="27" ry="18"/>
<text text-anchor="middle" x="720.1961" y="-302.3" font-family="Times,serif" font-size="14.00" fill="#000000">+</text>
</g>
<!-- 24&#45;&gt;binop24 -->
<g id="edge36" class="edge">
<title>24&#45;&gt;binop24</title>
<path fill="none" stroke="#000000" d="M724.682,-359.8314C724.0403,-352.131 723.2773,-342.9743 722.5641,-334.4166"/>
<polygon fill="#000000" stroke="#000000" points="726.049,-334.088 721.7305,-324.4133 719.0732,-334.6694 726.049,-334.088"/>
</g>
<!-- 26 -->
<g id="node39" class="node">
<title>26</title>
<ellipse fill="none" stroke="#000000" cx="809.1961" cy="-306" rx="44.393" ry="18"/>
<text text-anchor="middle" x="809.1961" y="-302.3" font-family="Times,serif" font-size="14.00" fill="#000000">num_exp</text>
</g>
<!-- 25&#45;&gt;26 -->
<g id="edge38" class="edge">
<title>25&#45;&gt;26</title>
<path fill="none" stroke="#000000" d="M809.1961,-359.8314C809.1961,-352.131 809.1961,-342.9743 809.1961,-334.4166"/>
<polygon fill="#000000" stroke="#000000" points="812.6962,-334.4132 809.1961,-324.4133 805.6962,-334.4133 812.6962,-334.4132"/>
</g>
<!-- 27 -->
<g id="node41" class="node">
<title>27</title>
<ellipse fill="none" stroke="#000000" cx="902.1961" cy="-306" rx="30.5947" ry="18"/>
<text text-anchor="middle" x="902.1961" y="-302.3" font-family="Times,serif" font-size="14.00" fill="#000000">binop</text>
</g>
<!-- 25&#45;&gt;27 -->
<g id="edge40" class="edge">
<title>25&#45;&gt;27</title>
<path fill="none" stroke="#000000" d="M827.1274,-364.1177C840.8443,-353.4981 859.9763,-338.6863 875.4925,-326.6738"/>
<polygon fill="#000000" stroke="#000000" points="877.9186,-329.2218 883.6832,-320.3325 873.6334,-323.6867 877.9186,-329.2218"/>
</g>
<!-- 28 -->
<g id="node43" class="node">
<title>28</title>
<ellipse fill="none" stroke="#000000" cx="995.1961" cy="-306" rx="44.393" ry="18"/>
<text text-anchor="middle" x="995.1961" y="-302.3" font-family="Times,serif" font-size="14.00" fill="#000000">num_exp</text>
</g>
<!-- 25&#45;&gt;28 -->
<g id="edge42" class="edge">
<title>25&#45;&gt;28</title>
<path fill="none" stroke="#000000" d="M830.7034,-366.7291C835.4293,-364.3983 840.4427,-362.0355 845.1961,-360 864.7567,-351.6236 914.9325,-333.8289 951.8907,-320.9514"/>
<polygon fill="#000000" stroke="#000000" points="953.1549,-324.2174 961.4506,-317.6271 950.8558,-317.6057 953.1549,-324.2174"/>
</g>
<!-- num_exp26 -->
<g id="node40" class="node">
<title>num_exp26</title>
<ellipse fill="none" stroke="#000000" cx="820.1961" cy="-234" rx="27" ry="18"/>
<text text-anchor="middle" x="820.1961" y="-230.3" font-family="Times,serif" font-size="14.00" fill="#000000">1</text>
</g>
<!-- 26&#45;&gt;num_exp26 -->
<g id="edge39" class="edge">
<title>26&#45;&gt;num_exp26</title>
<path fill="none" stroke="#000000" d="M811.9718,-287.8314C813.1664,-280.0125 814.5903,-270.6923 815.9149,-262.0221"/>
<polygon fill="#000000" stroke="#000000" points="819.4088,-262.3273 817.4593,-251.9134 812.4891,-261.2701 819.4088,-262.3273"/>
</g>
<!-- binop27 -->
<g id="node42" class="node">
<title>binop27</title>
<ellipse fill="none" stroke="#000000" cx="902.1961" cy="-234" rx="27" ry="18"/>
<text text-anchor="middle" x="902.1961" y="-230.3" font-family="Times,serif" font-size="14.00" fill="#000000">/</text>
</g>
<!-- 27&#45;&gt;binop27 -->
<g id="edge41" class="edge">
<title>27&#45;&gt;binop27</title>
<path fill="none" stroke="#000000" d="M902.1961,-287.8314C902.1961,-280.131 902.1961,-270.9743 902.1961,-262.4166"/>
<polygon fill="#000000" stroke="#000000" points="905.6962,-262.4132 902.1961,-252.4133 898.6962,-262.4133 905.6962,-262.4132"/>
</g>
<!-- num_exp28 -->
<g id="node44" class="node">
<title>num_exp28</title>
<ellipse fill="none" stroke="#000000" cx="995.1961" cy="-234" rx="27" ry="18"/>
<text text-anchor="middle" x="995.1961" y="-230.3" font-family="Times,serif" font-size="14.00" fill="#000000">4</text>
</g>
<!-- 28&#45;&gt;num_exp28 -->
<g id="edge43" class="edge">
<title>28&#45;&gt;num_exp28</title>
<path fill="none" stroke="#000000" d="M995.1961,-287.8314C995.1961,-280.131 995.1961,-270.9743 995.1961,-262.4166"/>
<polygon fill="#000000" stroke="#000000" points="998.6962,-262.4132 995.1961,-252.4133 991.6962,-262.4133 998.6962,-262.4132"/>
</g>
<!-- binop29 -->
<g id="node46" class="node">
<title>binop29</title>
<ellipse fill="none" stroke="#000000" cx="881.1961" cy="-378" rx="27" ry="18"/>
<text text-anchor="middle" x="881.1961" y="-374.3" font-family="Times,serif" font-size="14.00" fill="#000000">*</text>
</g>
<!-- 29&#45;&gt;binop29 -->
<g id="edge45" class="edge">
<title>29&#45;&gt;binop29</title>
<path fill="none" stroke="#000000" d="M872.9718,-431.8314C874.1664,-424.0125 875.5903,-414.6923 876.9149,-406.0221"/>
<polygon fill="#000000" stroke="#000000" points="880.4088,-406.3273 878.4593,-395.9134 873.4891,-405.2701 880.4088,-406.3273"/>
</g>
<!-- num_exp30 -->
<g id="node48" class="node">
<title>num_exp30</title>
<ellipse fill="none" stroke="#000000" cx="963.1961" cy="-378" rx="27" ry="18"/>
<text text-anchor="middle" x="963.1961" y="-374.3" font-family="Times,serif" font-size="14.00" fill="#000000">2</text>
</g>
<!-- 30&#45;&gt;num_exp30 -->
<g id="edge47" class="edge">
<title>30&#45;&gt;num_exp30</title>
<path fill="none" stroke="#000000" d="M963.1961,-431.8314C963.1961,-424.131 963.1961,-414.9743 963.1961,-406.4166"/>
<polygon fill="#000000" stroke="#000000" points="966.6962,-406.4132 963.1961,-396.4133 959.6962,-406.4133 966.6962,-406.4132"/>
</g>
</g>
</svg>
